<?xml version="1.0" encoding="UTF-8" standalone="no"?>
<!DOCTYPE svg PUBLIC "-//W3C//DTD SVG 1.1//EN" "http://www.w3.org/Graphics/SVG/1.1/DTD/svg11.dtd">
<svg version="1.1" xmlns="http://www.w3.org/2000/svg" xmlns:xlink="http://www.w3.org/1999/xlink" preserveAspectRatio="xMidYMid meet" viewBox="0 0 640 640" width="640" height="640"><defs><path d="M150.06 308.83C150.46 309.22 150.73 309.72 150.81 310.27C151.33 312.29 151.62 314.35 151.69 316.43C151.77 317.34 151.63 318.25 151.28 319.09C150.78 319.96 150.07 320.68 149.23 321.21C138.9 328.83 128.06 335.72 116.79 341.86C116.32 342.12 112 327.47 111.93 326.03C111.7 322.17 112.92 320.43 116.25 318.69C125.76 313.77 137.57 310.63 147.99 308.63C148.68 308.41 149.43 308.49 150.06 308.83Z" id="ap51Qwgh"></path><path d="M150.06 308.95C150.46 309.33 150.73 309.84 150.81 310.39C151.33 312.4 151.62 314.47 151.69 316.55C151.77 317.45 151.63 318.37 151.28 319.21C150.78 320.07 150.07 320.79 149.23 321.31C138.9 328.94 128.07 335.84 116.79 341.97C116.32 342.23 112 327.58 111.93 326.14C111.7 322.29 112.92 320.55 116.25 318.81C125.76 313.87 137.57 310.75 147.99 308.75C148.68 308.52 149.43 308.59 150.06 308.95Z" id="ahS3TlTzf"></path><linearGradient id="gradiente4h0vEPZw2" gradientUnits="userSpaceOnUse" x1="139.04" y1="307.86" x2="104.69" y2="369.28"><stop style="stop-color: #000000;stop-opacity: 0" offset="0%"></stop><stop style="stop-color: #000000;stop-opacity: 1" offset="99%"></stop></linearGradient><path d="M231.88 445.87C233.06 446.61 233.72 447.96 233.57 449.36C233.14 451.59 230.31 452.23 228.05 452.36C219.08 452.86 210.08 452.43 201.2 451.08C200.38 450.95 199.39 450.88 198.87 451.53C198.35 452.18 198.52 452.68 198.34 453.25C197.72 455.2 194.77 455.31 193.27 453.93C191.96 452.37 191.15 450.45 190.95 448.42C189.33 440.69 186.57 433.25 182.78 426.32C181.79 424.71 181.02 422.99 180.48 421.18C179.27 416.16 184.46 411.97 188.81 415.2C192.71 418.07 195.34 423.99 198.88 427.51C206.98 435.58 217.03 441.42 228.06 444.43C229.41 444.68 230.7 445.17 231.88 445.87Z" id="a4YSgyFALt"></path><path d="M176.71 506.58C177.2 508.51 178.92 509.88 180.91 509.93C183.47 509.7 184.68 506.71 185.34 504.18C194.57 511.7 207.69 512.19 219.46 510.35C220 510.34 220.51 510.13 220.9 509.75C221.66 508.78 220.34 507.54 219.23 507.01C217.29 506.09 201.81 498.74 199.87 497.82C195.31 495.64 190.57 493.31 187.63 489.18C185.46 486.15 181.3 470.77 175.59 479.11C171.77 484.68 176.61 494.78 176.39 500.82C176.16 502.75 176.27 504.69 176.71 506.58Z" id="f1viDeOqjP"></path><path d="M140.9 415.97C142.72 416.43 144.38 417.4 145.67 418.76C146.53 420.06 147.07 421.54 147.26 423.08C151.01 442.44 153.76 461.98 155.47 481.63C164.58 483.87 174.07 484.01 183.24 482.06C184.07 481.99 184.84 481.57 185.34 480.91C185.54 480.46 185.62 479.96 185.57 479.47C185.2 456.77 182.69 433.77 174.06 412.74C172.87 409.18 170.85 405.96 168.19 403.33C165.31 400.85 161.62 399.73 158.12 398.3C152.36 395.92 146.71 392.55 140.43 392.02C131.2 391.3 122.68 397.08 116.16 403.67C114.84 403.56 112.82 404.94 111.66 405.57C111.66 405.57 137.97 414.93 140.9 415.97Z" id="cXNCb0Ifk"></path><path d="M140.67 415.74C142.49 416.21 144.14 417.18 145.44 418.53C146.31 419.83 146.85 421.31 147.02 422.85C150.78 442.21 153.53 461.74 155.26 481.38C164.36 483.63 173.84 483.78 183.01 481.83C183.85 481.77 184.61 481.35 185.11 480.68C185.31 480.23 185.39 479.73 185.36 479.24C184.98 456.55 182.39 433.54 173.85 412.52C172.65 408.96 170.64 405.73 167.96 403.1C165.08 400.63 161.4 399.51 157.89 398.09C152.13 395.7 146.48 392.33 140.2 391.8C130.97 391.07 122.45 396.87 115.93 403.46C114.61 403.3 112.61 404.74 111.43 405.35C117.27 407.43 137.74 414.7 140.67 415.74Z" id="a5k1yPm84"></path><linearGradient id="gradientbAQlgm2I8" gradientUnits="userSpaceOnUse" x1="199.9" y1="491.2" x2="112.72" y2="379.25"><stop style="stop-color: #000000;stop-opacity: 0" offset="0%"></stop><stop style="stop-color: #000000;stop-opacity: 1" offset="99%"></stop></linearGradient><path d="M88.25 428.36C88.25 428.36 88.25 428.36 88.25 428.36C88.25 467.9 88.25 489.87 88.25 494.26C88.25 494.26 88.25 494.26 88.25 494.26C84.82 494.26 82.92 494.26 82.53 494.26C82.53 494.26 82.53 494.26 82.53 494.26C82.53 454.72 82.53 432.76 82.53 428.36C82.53 428.36 82.53 428.36 82.53 428.36C85.96 428.36 87.87 428.36 88.25 428.36Z" id="duQGtu97k"></path><path d="M102.95 494.81C102.95 494.81 102.95 494.81 102.95 494.81C102.95 499.64 102.95 502.33 102.95 502.87C102.95 502.87 102.95 502.87 102.95 502.87C78.79 502.87 65.36 502.87 62.68 502.87C62.68 502.87 62.68 502.87 62.68 502.87C62.68 498.03 62.68 495.35 62.68 494.81C62.68 494.81 62.68 494.81 62.68 494.81C86.84 494.81 100.27 494.81 102.95 494.81Z" id="bj2XrITq7"></path><path d="M264.77 403.28C264.77 403.28 264.77 403.28 264.77 403.28C264.77 442.82 264.77 464.79 264.77 469.18C264.77 469.18 264.77 469.18 264.77 469.18C261.34 469.18 259.44 469.18 259.06 469.18C259.06 469.18 259.06 469.18 259.06 469.18C259.06 429.64 259.06 407.68 259.06 403.28C259.06 403.28 259.06 403.28 259.06 403.28C262.48 403.28 264.39 403.28 264.77 403.28Z" id="d3cFOQhtK9"></path><path d="M279.46 469.73C279.46 469.73 279.46 469.73 279.46 469.73C279.46 474.56 279.46 477.25 279.46 477.79C279.46 477.79 279.46 477.79 279.46 477.79C255.29 477.79 241.87 477.79 239.19 477.79C239.19 477.79 239.19 477.79 239.19 477.79C239.19 472.95 239.19 470.27 239.19 469.73C239.19 469.73 239.19 469.73 239.19 469.73C263.35 469.73 276.77 469.73 279.46 469.73Z" id="c91j2bkkp"></path><path d="M239.98 382.71C239.61 384.4 240.29 386.15 241.7 387.15C242.21 387.41 242.77 387.56 243.34 387.58C245.01 387.67 246.62 387.01 247.75 385.79C248.84 384.38 249.53 382.71 249.76 380.95C250.58 376.78 250.79 372.51 250.38 368.27C250.06 364.98 246.72 361.08 244.09 364.81C241.76 368.16 242.88 374.04 241.57 377.89C240.9 379.44 240.36 381.05 239.98 382.71Z" id="b2xlJx2n5e"></path><path d="M234.21 395.6C237.14 399.66 239.44 404.23 244.28 405.51C250.23 406.86 256.31 407.62 262.41 407.77C275.55 408.49 288.73 408.87 301.88 408.33C307.69 408.24 313.48 407.54 319.14 406.25C322.8 405.31 326.71 403.61 328.15 400.13C329.49 396.89 328.15 393.04 325.72 390.55C323.12 388.18 319.98 386.5 316.57 385.64C304.58 381.92 291.91 381.64 279.45 381.44C273.32 381.35 267.11 381.44 261 380.79C257.13 380.4 253.39 379.53 249.49 379.8C244.32 380.17 233.63 371.25 229.59 374.89C225.88 378.26 231.27 391.54 234.21 395.6Z" id="c1GcZM9dow"></path><path d="M269.26 400.43C272.41 400.37 297.64 399.85 300.8 399.79C304.41 399.71 308.14 399.61 311.45 397.87C317.03 394.99 320.51 386.89 318.74 379.94C318.44 378.34 317.6 376.89 316.37 375.83C315.03 375.08 313.49 374.81 311.98 375.07C295.62 375.99 274.78 370.32 258.42 371.24C254.6 371.45 248.94 376.55 246.22 381.08C243.04 386.39 249.53 394.98 253.16 397.38C257.96 400.58 263.75 400.53 269.26 400.43Z" id="ahldShmYb"></path><path d="M271.01 471.08C271.82 471.41 272.69 471.55 273.56 471.51C274.65 471.55 283.32 471.81 284.41 471.85C285.03 471.93 285.66 471.8 286.19 471.49C286.65 471.06 286.92 470.49 286.97 469.87C289.39 457.07 289.29 394.86 291.29 379.01C292.22 371.27 285.11 368.75 275.82 367.24C267.79 365.93 265.98 371.25 266.14 377.73C266.64 396.76 266.29 415.79 267.09 434.82C267.46 445.23 268.01 455.63 268.74 466.03C269.07 468.81 269.82 470.5 271.01 471.08Z" id="f4H49CnG6b"></path><path d="M300.31 483.2C301.11 483.54 301.98 483.7 302.86 483.66C303.94 483.69 312.61 483.96 313.69 483.99C314.31 484.09 314.95 483.96 315.49 483.63C315.93 483.18 316.2 482.58 316.25 481.95C318.68 468.52 318.58 403.35 320.57 386.75C321.5 378.63 314.4 375.99 305.11 374.4C297.07 373.04 295.26 378.62 295.43 385.4C295.93 405.34 295.59 425.27 296.37 445.21C296.75 456.12 297.3 467.02 298.02 477.92C298.35 480.79 299.11 482.56 300.31 483.2Z" id="c1bCTCTh9W"></path><path d="M472.05 444C473.18 453.63 476.21 463.17 475.33 472.78C474.4 482.94 475.05 493.18 475.05 503.39C474.97 504.28 475.12 505.18 475.46 506C475.94 506.76 476.63 507.36 477.44 507.75C480.35 509.31 483.73 509.76 486.95 509.03C489.53 491.64 491.02 474.11 491.39 456.54C491.51 450.97 491.52 445.31 493.03 439.96C494.22 436.23 495.77 432.63 497.65 429.2C502.45 419.81 507.2 410.39 511.9 400.95C514.7 395.37 516.26 392.26 516.57 391.64C518.01 388.76 519.45 385.89 520.89 383.01C524.36 375.73 527.51 368.02 527.39 359.99C527.31 354.35 525.26 348.35 520.6 345.18C517.23 342.89 513 342.3 508.95 342.17C503.22 341.89 495.31 343.6 489.65 344.3C487.25 378.15 468.07 410.3 472.05 444Z" id="dJGLonkdC"></path><path d="M520.03 411.61C519.39 417.37 519.28 423.12 519.21 428.88C518.69 466.29 519.81 496.22 519.88 503.7C519.88 505.56 519.88 507.62 518.72 509.01C516.85 511.13 513.45 510.45 510.76 509.64C509.32 488.52 503.21 464.1 501.81 443C501 430.98 495.26 418.91 495.64 406.88C496.01 395.37 507.15 387.11 511.54 376.45C512.86 373.21 518.03 362.06 523.21 366.82C526.8 370.2 524.21 383.45 523.71 387.93C522.82 395.87 520.92 403.67 520.03 411.61Z" id="a3IlDzdNb"></path><path d="M471.92 521.75C471.96 522.31 472.14 522.86 472.46 523.33C472.67 523.87 473.08 524.32 473.61 524.57C473.98 524.67 474.38 524.67 474.76 524.57C475.33 524.44 479.94 523.43 480.51 523.3C481.46 523.15 482.36 522.81 483.18 522.32C485.03 521 485.21 518.36 485.22 516.09C485.22 515.74 485.22 512.91 485.22 512.55C485.22 510.22 485.15 507.2 482.85 505.87C481.34 504.89 479.33 505.28 478.31 506.77C475.95 510.38 477.88 515.6 474.3 518.87C473.33 519.73 471.95 520.48 471.92 521.75Z" id="f1FPR803y"></path><linearGradient id="gradiente9UqQgcoc" gradientUnits="userSpaceOnUse" x1="471.92" y1="514.98" x2="485.18" y2="514.98"><stop style="stop-color: #e5c5d5;stop-opacity: 1" offset="0%"></stop><stop style="stop-color: #ead4d1;stop-opacity: 1" offset="42%"></stop><stop style="stop-color: #f0e9cb;stop-opacity: 1" offset="100%"></stop></linearGradient><path d="M465.13 523.82C464.97 524.6 465.28 525.4 465.92 525.88C466.56 526.33 467.29 526.62 468.07 526.72C469.74 526.99 471.44 527.11 473.13 527.08C474.05 527.1 481.39 527.19 482.31 527.2C483.03 527.29 483.75 527.13 484.36 526.74C484.84 526.24 485.12 525.58 485.15 524.88C485.34 523.52 485.38 522.14 485.26 520.77C485.27 520.52 485.17 520.28 484.99 520.11C484.79 519.99 484.56 519.96 484.34 520.03C481.38 520.54 477 523.29 474.27 521.2C473.33 520.48 472.83 519.95 471.52 520.13C469.66 520.5 467.91 521.27 466.37 522.38C465.81 522.7 465.37 523.21 465.13 523.82Z" id="aU3hWldpP"></path><path d="M501.75 520.67C501.84 521.3 502.76 521.67 503.51 521.75C506.32 522.04 509.16 521.9 511.93 521.33C513.1 521.15 514.22 520.73 515.21 520.08C517.21 518.64 517.74 515.87 517.97 513.4C518.4 511.14 518.04 508.81 516.96 506.78C514.8 503.56 510.92 509.28 510.37 511.4C510.12 513.3 509.32 515.08 508.07 516.54C506.57 517.9 504.43 518.21 502.72 519.23C502.2 519.53 501.67 520.03 501.75 520.67Z" id="aiwKk0FHJ"></path><linearGradient id="gradientagC8IVT9o" gradientUnits="userSpaceOnUse" x1="501.74" y1="513.83" x2="518.08" y2="513.83"><stop style="stop-color: #e5c5d5;stop-opacity: 1" offset="0%"></stop><stop style="stop-color: #ead4d1;stop-opacity: 1" offset="42%"></stop><stop style="stop-color: #f0e9cb;stop-opacity: 1" offset="100%"></stop></linearGradient><path d="M509.61 514.51C509.04 514.52 508.49 514.72 508.04 515.07C505.59 516.51 503.19 518.16 500.85 519.83C500.11 520.28 499.48 520.88 498.98 521.57C498.46 522.28 498.37 523.22 498.76 524C499.09 524.52 499.61 524.89 500.2 525.04C501.35 525.31 502.54 525.31 503.69 525.04C508.99 524.16 515.13 523.6 520.14 521.64C523.9 520.21 521.94 515.77 518.44 515.73C516.13 515.69 513.85 517.07 511.59 515.63C510.95 515.21 510.39 514.55 509.61 514.51Z" id="b3IODsTE8"></path><path d="M226.84 339.89C226.47 354.52 226.15 369.6 230.34 383.25C231.02 386.21 232.46 388.94 234.52 391.17C236.74 392.92 239.51 393.83 242.34 393.76C249.53 394.17 257.33 392.91 262.48 386.69C267.04 381.27 268.75 373.09 269.52 365.27C270.32 354.44 270.4 343.56 269.76 332.72C269.42 323.18 268.9 312.99 264.32 305.38C262.18 302.09 259.58 299.12 256.6 296.58C243.34 284.2 228.09 291.73 227.52 312.81C227.38 318.22 226.91 337.18 226.84 339.89Z" id="b12CRFvOL3"></path><path d="M475.29 353.48C475.29 363.27 399.87 371.2 306.84 371.2C213.81 371.2 138.39 363.27 138.39 353.48C138.39 343.7 213.81 335.77 306.84 335.77C399.87 335.77 475.29 343.7 475.29 353.48Z" id="c7YdcDQFnm"></path><path d="M306.83 376.68C213.79 376.68 138.38 368.76 138.38 358.96C138.38 358.03 139.07 357.11 140.39 356.22C152.92 364.71 222.67 371.2 306.83 371.2C390.99 371.2 460.79 364.71 473.28 356.22C474.6 357.11 475.28 358.03 475.28 358.96C475.28 368.75 399.87 376.68 306.83 376.68Z" id="d12Pg5jAbM"></path><path d="M306.83 376.68C213.79 376.68 138.38 368.76 138.38 358.96C138.38 358.03 139.07 357.11 140.39 356.22C152.92 364.71 222.67 371.2 306.83 371.2C390.99 371.2 460.79 364.71 473.28 356.22C474.6 357.11 475.28 358.03 475.28 358.96C475.28 368.75 399.87 376.68 306.83 376.68Z" id="aYNBOzAp7"></path><linearGradient id="gradientb1GSfp6FNP" gradientUnits="userSpaceOnUse" x1="138.38" y1="366.45" x2="475.28" y2="366.45"><stop style="stop-color: #000000;stop-opacity: 0" offset="0%"></stop><stop style="stop-color: #000000;stop-opacity: 1" offset="99%"></stop></linearGradient><path d="M306.83 371.2C222.67 371.2 152.87 364.71 140.39 356.22C152.92 347.74 222.67 341.25 306.83 341.25C390.99 341.25 460.74 347.74 473.28 356.22C460.74 364.71 390.99 371.2 306.83 371.2Z" id="a7HiXAH2mC"></path><path d="M473.28 356.22C460.74 364.71 390.99 371.2 306.83 371.2C222.67 371.2 152.87 364.71 140.39 356.22C139.07 355.32 138.38 354.42 138.38 353.48C138.38 343.7 213.8 335.76 306.83 335.76C399.85 335.76 475.28 343.7 475.28 353.48C475.28 354.42 474.6 355.32 473.28 356.22Z" id="b1WjSZyBls"></path><linearGradient id="gradiente1p3D8SpAD" gradientUnits="userSpaceOnUse" x1="304.97" y1="384.97" x2="310.25" y2="295.78"><stop style="stop-color: #000000;stop-opacity: 0" offset="0%"></stop><stop style="stop-color: #000000;stop-opacity: 1" offset="99%"></stop></linearGradient><path d="M531 287.29C531.01 290.6 530.35 293.87 529.06 296.91C526.37 303.8 523.21 310.5 519.61 316.96C520.5 315.28 519.12 309.77 518.99 307.86C518.69 303.09 518.49 299.26 518.43 298.3C517.9 288.52 517.61 280.68 517.52 278.72C517.41 275.62 515.39 266.07 520.04 264.83C523.93 263.8 526.49 274.06 527.85 277.08C529.54 280.26 530.61 283.72 531 287.29Z" id="b24FxJhD8"></path><linearGradient id="gradienta7nyqjtka" gradientUnits="userSpaceOnUse" x1="516.92" y1="290.89" x2="531.02" y2="290.89"><stop style="stop-color: #e5c5d5;stop-opacity: 1" offset="0%"></stop><stop style="stop-color: #ead4d1;stop-opacity: 1" offset="42%"></stop><stop style="stop-color: #f0e9cb;stop-opacity: 1" offset="100%"></stop></linearGradient><path d="M483.61 303.44C483.62 300.46 483.36 297.49 482.83 294.56C481.58 288.6 478.26 283.05 478.51 276.92C478.74 270.13 483.28 264.34 487.61 259.09C489.28 256.91 491.18 254.92 493.28 253.15C495.41 251.4 498.06 250.39 500.82 250.27C505.82 250.27 511.22 248.72 515.29 251.64C519.36 254.56 520.79 259.96 521.57 264.95C524.76 285.63 521.87 306.85 524.44 327.61C525.44 335.66 527.32 343.58 528.03 351.66C528.24 352.55 528.04 353.48 527.49 354.22C526.96 354.62 526.31 354.84 525.64 354.84C513.03 356.14 500.3 355.6 487.84 353.25C487.36 353.21 486.92 353.02 486.56 352.71C486.31 352.36 486.16 351.96 486.13 351.54C484.03 339.22 481 326.04 483.08 313.78C483.57 310.36 483.75 306.9 483.61 303.44Z" id="h32Y5Lyf86"></path><path d="M124.94 262.5C124.46 263.5 123.3 263.94 122.48 264.68C120.43 266.5 120.78 269.75 119.74 272.29C118.17 275.76 114.18 277.44 110.59 276.14C110.15 275.9 109.65 275.79 109.15 275.81C108.76 275.94 108.42 276.21 108.19 276.56C106.75 278.52 106.75 281.45 105.02 283.12C103.56 284.33 101.54 284.6 99.82 283.8C98.14 282.98 96.77 281.64 95.93 279.97C93.05 274.91 93.79 268.7 94.49 262.96C95.2 257.22 95.93 251.8 98.09 246.65C98.66 245.06 99.59 243.63 100.82 242.47C102.87 240.75 105.71 240.47 108.38 240.31C110.95 240.03 113.56 240.16 116.09 240.7C123.92 242.78 123.5 253.31 124.94 259.87C125.23 260.72 125.23 261.65 124.94 262.5Z" id="f7xEBfmV0"></path><linearGradient id="gradientbfGsM0BGp" gradientUnits="userSpaceOnUse" x1="93.8" y1="262.21" x2="125.15" y2="262.21"><stop style="stop-color: #e5c5d5;stop-opacity: 1" offset="0%"></stop><stop style="stop-color: #ead4d1;stop-opacity: 1" offset="42%"></stop><stop style="stop-color: #f0e9cb;stop-opacity: 1" offset="100%"></stop></linearGradient><path d="M126.46 238.57C126.52 240.36 125.56 242.03 123.99 242.89C122.43 243.72 120.69 244.15 118.92 244.14C117.17 244.13 115.42 244.26 113.69 244.53C111.95 244.81 110.4 245.77 109.37 247.19C108.1 249.16 108.46 251.73 108.48 254.07C108.53 254.74 108.4 255.42 108.1 256.03C107.79 256.66 107.06 256.97 106.39 256.76C106.04 256.57 105.76 256.3 105.56 255.96C105.01 255.02 104.42 254.13 103.77 253.26C103.13 252.41 102.14 251.88 101.07 251.83C100.09 251.9 99.19 252.39 98.59 253.16C98 253.82 97.61 254.64 97.48 255.52C97.24 257.45 98.49 259.24 99.67 260.78C98.47 262.97 96.65 264.75 94.43 265.9C93.82 266.27 93.12 266.47 92.4 266.46C91.15 266.34 90.28 265.19 89.53 264.16C89 263.38 84.76 257.14 84.23 256.36C83.28 255.15 82.64 253.73 82.38 252.21C82.34 250.6 82.73 249 83.5 247.58C84.61 244.66 86.16 241.92 88.09 239.47C89.55 237.45 90.82 235.31 91.89 233.06C93.01 230.74 95.06 229 97.54 228.29C100.16 227.78 102.74 229.19 105.35 229.72C107.97 230.26 110.78 229.95 113.44 230.47C117 231.22 121.33 234.03 124.54 235.7C125.62 236.28 126.34 237.35 126.46 238.57Z" id="geaFiCdNQ"></path><path d="M105.21 283.73C106.74 286.6 106.2 290.06 105.63 293.24C99.36 289.95 93.84 285.39 89.43 279.86C87.79 277.68 88.4 273.71 91.83 273.93C94.82 274.09 98.65 277.81 100.89 279.41C102.65 280.49 104.13 281.97 105.21 283.73Z" id="b3rQN3TFQY"></path><path d="M106.3 295.38C107.46 297.58 119.01 334.81 119.34 337.11C119.57 339.29 119.54 341.48 119.25 343.66C118.93 347.17 116.33 375.32 116 378.84C116.01 379.47 115.83 380.1 115.48 380.63C115.09 381.05 114.59 381.35 114.05 381.51C111.73 382.38 93.24 389.28 90.92 390.15C87.51 391.54 83.96 392.62 80.35 393.35C77.56 393.8 74.93 394.9 72.65 396.56C68.68 399.44 67.4 408.17 63.94 408.23C61.31 400.75 69.83 370.36 71.3 364.79C76.48 345.04 69.7 324.3 69.41 303.87C69.29 300.49 69.58 297.11 70.27 293.8C71.92 286.81 77.02 279.41 83.76 276.37C85.97 275.39 85.67 275.28 87.97 276.95C89.79 278.29 91.56 279.74 93.27 281.27C96.85 284.35 100.2 287.69 103.31 291.25C104.47 292.51 105.47 293.89 106.3 295.38Z" id="c3VRGSIFN"></path><path d="M79.48 321.28L100.45 363.73C100.72 377.73 100.86 385.51 100.89 387.07C100.89 387.07 115.64 382.33 116.36 375.12C116.36 375.12 117.73 352.39 117.73 352.39C115.53 349.74 104.54 336.49 84.76 312.65L79.48 321.28Z" id="d1VFpXpLY"></path><linearGradient id="gradientb2TPXCzD8h" gradientUnits="userSpaceOnUse" x1="81.46" y1="355.08" x2="137.93" y2="329.65"><stop style="stop-color: #000000;stop-opacity: 0" offset="0%"></stop><stop style="stop-color: #000000;stop-opacity: 1" offset="99%"></stop></linearGradient><path d="M76.43 315.9C76.4 317.46 76.58 319.03 76.95 320.55C77.61 322.48 78.58 324.29 79.83 325.9C87.91 337.52 97.06 348.36 107.17 358.27C108.03 359.29 109.15 360.05 110.42 360.46C111.3 360.63 112.21 360.63 113.1 360.46C116.78 359.92 146.26 355.62 149.95 355.08C151.21 355.25 152.37 354.37 152.54 353.11C152.59 352.78 152.56 352.45 152.46 352.13C152.37 351.01 151.62 342.08 151.53 340.96C139.7 342.03 127.79 341.28 116.19 338.73C114.91 338.55 113.69 338.06 112.65 337.3C111.82 336.42 111.2 335.38 110.82 334.23C105.61 322.07 100.48 309.9 95.23 297.77C93.79 294.32 92.19 290.3 88.03 289.39C83.3 288.3 78.69 290.78 77.87 295.65C76.82 302.35 76.34 309.12 76.43 315.9Z" id="a4TXe4HlYb"></path><path d="M156.75 343.35C157 343.79 157.14 344.29 157.17 344.79C157.36 346.23 157.5 347.78 157.59 349.3C157.79 350.76 157.59 352.26 157 353.61C154.75 353.61 152.49 353.54 150.25 353.4C149.93 353.4 149.62 353.31 149.34 353.15C149.14 352.95 148.99 352.7 148.9 352.43C148.16 350.53 146.58 346.68 147.33 344.66C148.08 342.65 151.61 342.86 153.27 342.62C154.51 342.4 156.05 342.32 156.75 343.35Z" id="cA4BZLzD"></path><path d="M166.81 338.45C169.3 338.12 171.83 338.76 173.86 340.25C175.95 341.6 177.76 343.32 179.87 344.65C181.99 345.97 184.54 346.98 186.44 348.72C186.71 348.92 186.89 349.22 186.94 349.55C186.94 350.02 186.54 350.35 186.12 350.55C183.69 351.74 180.8 350.98 178.16 350.33C176.05 349.81 173.69 349.41 171.83 350.52C170.25 351.45 169.31 353.4 167.51 353.96C166.4 354.24 165.23 354.21 164.13 353.87C161.13 353.19 158.2 352.22 155.38 350.99C154.95 350.83 154.56 350.59 154.22 350.27C152.78 348.84 153.21 345.02 154.95 343.94C155.88 343.49 156.84 343.11 157.83 342.82C159.33 342.22 160.77 341.5 162.16 340.68C163.57 339.67 165.14 338.92 166.81 338.45Z" id="dMhcQi8VV"></path><linearGradient id="gradientb1p7k8ZLuC" gradientUnits="userSpaceOnUse" x1="153.46" y1="346.23" x2="186.94" y2="346.23"><stop style="stop-color: #e5c5d5;stop-opacity: 1" offset="0%"></stop><stop style="stop-color: #ead4d1;stop-opacity: 1" offset="42%"></stop><stop style="stop-color: #f0e9cb;stop-opacity: 1" offset="100%"></stop></linearGradient><path d="M159.49 368.62C170.95 381.5 181.36 395.27 190.62 409.81C190.9 410.18 191.08 410.6 191.17 411.05C191.11 412.04 190.57 412.94 189.73 413.47C188.7 414.42 180.43 422.02 179.4 422.97C178.94 423.5 178.3 423.84 177.6 423.93C177.03 423.85 176.49 423.59 176.06 423.2C173.31 421.09 151.3 404.26 148.55 402.16C147.9 401.55 147.07 401.15 146.19 401.01C145.56 401.03 144.95 401.18 144.39 401.47C139.69 403.53 135.47 406.56 130.81 408.75C120.52 413.57 108.75 413.93 97.38 413.73C86.23 413.53 74.89 412.82 64.48 408.87C62.35 408.06 70.92 392.65 75.04 392.28C81.98 391.63 88.78 389.89 95.18 387.12C100.15 384.97 104.88 382.09 110.13 380.63C113.46 379.71 113.17 376.32 116.43 375.12C126.79 371.48 140.43 370.2 150.85 366.69C153.77 364.85 157.63 365.71 159.49 368.62Z" id="d3bb0uXvEB"></path><path d="M159.49 368.62C170.95 381.5 181.36 395.27 190.62 409.81C190.9 410.18 191.08 410.6 191.17 411.05C191.11 412.04 190.57 412.94 189.73 413.47C188.7 414.42 180.43 422.02 179.4 422.97C178.94 423.5 178.3 423.84 177.6 423.93C177.03 423.85 176.49 423.59 176.06 423.2C173.31 421.09 151.3 404.26 148.55 402.16C147.9 401.55 147.07 401.15 146.19 401.01C145.56 401.03 144.95 401.18 144.39 401.47C139.69 403.53 135.47 406.56 130.81 408.75C120.52 413.57 108.75 413.93 97.38 413.73C86.23 413.53 74.89 412.82 64.48 408.87C62.35 408.06 70.92 392.65 75.04 392.28C81.98 391.63 88.78 389.89 95.18 387.12C100.15 384.97 104.88 382.09 110.13 380.63C113.46 379.71 113.17 376.32 116.43 375.12C126.79 371.48 140.43 370.2 150.85 366.69C153.77 364.85 157.63 365.71 159.49 368.62Z" id="b2AFiA0oKn"></path><linearGradient id="gradientb1HDUHig41" gradientUnits="userSpaceOnUse" x1="156.13" y1="420.55" x2="57.53" y2="349.05"><stop style="stop-color: #000000;stop-opacity: 0" offset="0%"></stop><stop style="stop-color: #000000;stop-opacity: 1" offset="99%"></stop></linearGradient><path d="M60.58 346.92C60.69 352.17 61.59 394.16 61.7 399.41C61.64 400.92 61.86 402.42 62.35 403.84C64.17 408.4 70.22 409.11 75.12 409.11C79.08 409.11 110.74 409.11 114.69 409.11C119.18 409.11 123.9 409.11 127.83 411.33C131.76 413.54 134.55 418.52 132.66 422.56C130.54 427.21 124.32 427.87 119.21 427.87C112.68 427.87 60.46 427.87 53.93 427.87C52.19 428.02 50.44 427.71 48.85 427C45.97 425.41 45.41 421.7 45.09 418.48C44.17 409.07 36.79 333.85 35.87 324.45C35.35 319.11 34.43 306.89 41.63 306.1C48.45 305.45 55.6 317.78 57.4 322.72C60.19 330.4 60.4 338.75 60.58 346.92Z" id="c4rxbDi5o4"></path><path d="M145.5 313.91C149.54 308.16 154.62 303.22 160.49 299.35C160.42 299.9 159.83 304.29 159.76 304.83C165.81 301.61 172.32 299.35 179.07 298.14C180.25 297.94 181.8 297.97 182.21 299.09C182.52 299.99 181.82 300.88 181.17 301.57C177.77 305.4 174.02 308.9 169.98 312.04C165.89 315.19 161.02 317.14 155.9 317.68C153.97 317.92 152.02 317.56 150.31 316.63C148.59 315.64 147.73 313.63 148.19 311.7" id="eKMKWsT6"></path><linearGradient id="gradientbhWSREcvE" gradientUnits="userSpaceOnUse" x1="145.56" y1="307.88" x2="182.34" y2="307.88"><stop style="stop-color: #e5c5d5;stop-opacity: 1" offset="0%"></stop><stop style="stop-color: #ead4d1;stop-opacity: 1" offset="42%"></stop><stop style="stop-color: #f0e9cb;stop-opacity: 1" offset="100%"></stop></linearGradient><path d="M243.26 279.42C242.05 280.99 241.34 282.89 241.2 284.86C240.34 290.14 233.51 332.38 232.65 337.66C232.26 340.06 231.92 342.68 233.23 344.76C234.78 347.25 238.11 348.06 241.11 348.56C250.98 350.23 260.99 351.01 271 350.86C271.51 350.91 272.01 350.78 272.44 350.5C272.8 350.11 273 349.6 273 349.07C273.46 345.13 273.38 341.14 272.75 337.22C270.9 336.99 256.09 335.13 254.24 334.89C252.64 334.69 252.71 334.89 251.99 333.53C251.68 332.81 251.56 332.02 251.66 331.24C251.98 323.78 251.57 315.83 254.22 308.81C256.49 315.87 257.89 329.28 258.02 336.66C275.92 335.91 293.7 335.37 311.62 336.17C311.45 325.48 312.1 314.78 313.55 304.19C314.25 305.69 319.88 317.69 320.58 319.19C321.83 321.39 322.54 323.86 322.63 326.39C322.51 329.47 320.58 332.46 321.29 335.47C322.8 335.42 330.38 335.17 344.02 334.73C342.18 325.35 341.16 320.14 340.96 319.09C340.2 313.94 338.43 308.98 335.76 304.5C334.65 302.42 325.77 285.79 324.65 283.71C323.84 281.94 322.72 280.31 321.35 278.92C320 277.8 318.49 276.91 316.87 276.26C305.21 271.09 292.64 268.29 279.89 268.04C269.03 267.9 257.85 273.61 247.83 277.01C246.13 277.43 244.56 278.26 243.26 279.42Z" id="a1SE5MzQRK"></path><path d="M295.91 303.04C296.22 301.29 298.77 287.29 299.09 285.54C299.99 281.4 300.43 277.17 300.4 272.93C300.42 272.48 300.28 272.03 299.99 271.67C299.55 271.34 298.99 271.19 298.44 271.27C290.21 271.27 277.03 268.13 275.65 278.7C274.33 289.93 275.17 301.31 278.12 312.22C278.62 314.09 285.07 330.04 284.52 330.62C291.95 323.51 294.11 312.94 295.91 303.04Z" id="a5UT6V1fUy"></path><path d="M278.24 271.15C278.46 272.23 278.89 273.26 279.5 274.19C280.82 276.64 283.14 278.4 285.85 279.04C288.21 279.38 290.54 278.3 292.75 277.19C293.77 276.77 294.68 276.12 295.4 275.29C296.3 274.03 296.8 272.53 296.84 270.98C296.94 268.92 296.81 266.85 296.47 264.82C296.37 264.06 295.56 258.02 295.46 257.26C295.44 256.94 295.34 256.62 295.17 256.34C294.99 256.13 294.73 256 294.45 255.97C290.61 255.05 285.32 253.35 281.43 254.73C277.55 256.11 278.97 262.83 278.45 266.6C278.14 268.1 278.07 269.63 278.24 271.15Z" id="e5zBfVviV"></path><linearGradient id="gradiente143cIRHSC" gradientUnits="userSpaceOnUse" x1="278.12" y1="266.7" x2="296.87" y2="266.7"><stop style="stop-color: #867580;stop-opacity: 1" offset="0%"></stop><stop style="stop-color: #9b8f8e;stop-opacity: 1" offset="56.99999999999999%"></stop></linearGradient><path d="M295.43 257.35C295.43 257.35 289.03 270.3 282.6 269.16C282.6 269.16 278.96 258.26 278.96 258.26C282.25 258.08 292.14 257.53 295.43 257.35Z" id="a1pFsFj1pi"></path><linearGradient id="gradientcdxBrdcnB" gradientUnits="userSpaceOnUse" x1="283.32" y1="273.41" x2="290.25" y2="245.45"><stop style="stop-color: #000000;stop-opacity: 0" offset="0%"></stop><stop style="stop-color: #000000;stop-opacity: 1" offset="99%"></stop></linearGradient><path d="M298.19 243.45C299.04 242.17 300.34 240.72 301.86 241.11C303.19 241.63 303.83 243.13 303.31 244.45C303.31 244.46 303.31 244.46 303.3 244.47C302.72 245.72 301.94 246.86 301 247.87C298.24 251.55 297.75 256.63 294.34 259.78C291.61 261.99 288.18 263.13 284.68 263.01C283.3 263.09 281.91 262.92 280.58 262.5C277.47 261.41 275.6 258.39 274.5 255.42C273.27 251.95 272.53 248.33 272.28 244.66C271.88 241.4 272.13 238.09 273.03 234.93C274.01 231.7 276.37 229.07 279.47 227.74C284.44 225.83 290.34 228.56 293.42 232.75C296.5 236.93 297.4 242.2 298.04 247.29" id="b28vCzZ0nx"></path><linearGradient id="gradientd2jLSkrjpn" gradientUnits="userSpaceOnUse" x1="272.12" y1="245.05" x2="303.45" y2="245.05"><stop style="stop-color: #867580;stop-opacity: 1" offset="0%"></stop><stop style="stop-color: #9b8f8e;stop-opacity: 1" offset="56.99999999999999%"></stop></linearGradient><path d="M272.31 239.16C272.63 239.67 273.28 239.87 273.83 239.64C274.37 239.39 274.82 238.99 275.13 238.49C276.39 236.76 277.33 234.75 279.06 233.44C280.78 232.13 283.75 232 284.93 233.7C285 233.83 285.1 233.95 285.23 234.04C285.44 234.12 285.68 234.12 285.89 234.04C288.62 233.36 291.51 234.21 293.45 236.26C295.25 238.27 296.24 240.88 296.21 243.58C296.21 244.39 297.22 247.22 298.02 246.98C298.25 246.9 298.32 244.59 298.48 244.42C299.04 243.78 299.07 243.58 299.63 242.98C299.8 242.75 300.02 242.56 300.28 242.44C300.9 242.21 301.53 242.7 302.19 242.85C303.41 242.99 304.54 242.23 304.87 241.05C305.12 239.92 305.07 238.74 304.73 237.64C304.38 236.54 304.35 235.36 304.63 234.24C305.17 232.6 307 231.36 306.94 229.68C306.89 229.18 306.74 228.69 306.5 228.24C305.61 226.38 304.3 224.74 302.68 223.47C302.14 222.26 301.4 221.16 300.51 220.18C299.57 219.18 298.24 218.66 296.87 218.75C296.27 218.83 295.68 219.08 295.07 219.12C292.67 219.28 290.75 216.4 288.39 216.92C287.63 217.09 286.96 217.61 286.22 217.74C284.86 217.98 283.56 216.98 282.18 217C280.8 217.03 279.73 218.03 278.5 218.56C277.26 219.09 275.47 219.34 274.87 220.57C274.61 221.09 274.54 221.77 274.01 222.01C273.58 222.13 273.12 222.13 272.7 222.01C271.41 221.87 270.15 222.42 269.37 223.45C267.69 225.92 266.93 228.9 267.23 231.87C267.18 233.31 267.95 234.67 269.21 235.37C270.24 235.81 272.22 235.98 272.31 237.52C272.31 238.08 272.01 238.66 272.31 239.16Z" id="a2WZ5KuAx"></path><path d="M281.52 280.16C280.58 281.91 279.88 283.77 279.45 285.71C279.6 285.11 278.01 282.75 277.7 282.09C277.13 280.76 276.62 279.41 276.14 278.06C275.5 276.29 273.52 272.8 274.45 270.96C276.68 266.6 284.51 274.73 286.16 276.49C284.19 277.05 282.52 278.37 281.52 280.16Z" id="a1dHXDnnnI"></path><path d="M296.32 283.18C296.45 283.28 296.61 283.35 296.77 283.38C296.95 283.36 297.11 283.29 297.24 283.16C298.77 281.88 299.9 280.2 300.51 278.3C301.2 276.45 302.15 269.21 298.11 270.93C296.59 271.82 295.17 272.86 293.86 274.03C292.26 275.14 290.59 276.15 288.86 277.05C291.92 278.23 293.75 281.19 296.32 283.18Z" id="c3CmcBA88z"></path><path d="M285.16 287.39C285.36 286.45 285.39 285.47 285.24 284.52C284.84 282.57 282.96 281.01 283.01 279.04C283.1 276.45 286.41 274.98 289 275.73C291.43 276.45 292.81 279.01 292.09 281.44C292.03 281.63 291.96 281.82 291.88 282C291.55 282.62 291.06 283.18 290.78 283.83C290.4 285.27 290.56 286.81 291.23 288.14C292.58 291.93 294.22 311.64 294.11 313.27C294.11 314.47 291.55 319.91 291.13 321.05C288.65 327.7 285.73 329.99 284.55 330.53C283.63 322.39 285.56 310.55 284.78 302.3C284.32 297.34 284.45 292.33 285.16 287.39Z" id="b22uRCcoOO"></path><path d="M285.16 287.39C285.36 286.45 285.39 285.47 285.24 284.52C284.84 282.57 282.96 281.01 283.01 279.04C283.1 276.45 286.41 274.98 289 275.73C291.43 276.45 292.81 279.01 292.09 281.44C292.03 281.63 291.96 281.82 291.88 282C291.55 282.62 291.06 283.18 290.78 283.83C290.4 285.27 290.56 286.81 291.23 288.14C292.58 291.93 294.22 311.64 294.11 313.27C294.11 314.47 291.55 319.91 291.13 321.05C288.65 327.7 285.73 329.99 284.55 330.53C283.63 322.39 285.56 310.55 284.78 302.3C284.32 297.34 284.45 292.33 285.16 287.39Z" id="d4j4MsnNPZ"></path><linearGradient id="gradienta4rpyiW81" gradientUnits="userSpaceOnUse" x1="279.14" y1="281.94" x2="305.24" y2="347.01"><stop style="stop-color: #000000;stop-opacity: 0" offset="0%"></stop><stop style="stop-color: #000000;stop-opacity: 1" offset="99%"></stop></linearGradient><path d="M278.48 339.35C278.6 339.56 278.67 339.79 278.68 340.03C278.93 342.21 278.87 344.42 278.51 346.59C278.46 347.27 278.18 347.9 277.7 348.39C277 348.83 276.16 349 275.34 348.86C275 348.85 272.29 348.75 271.95 348.73C271.7 348.74 271.45 348.69 271.23 348.58C271 348.42 270.84 348.19 270.75 347.93C269.91 345.96 268.98 342.35 269.99 340.29C271 338.23 275.11 338.86 277.04 338.89C277.57 338.81 278.1 338.98 278.48 339.35Z" id="cvtaVPk9o"></path><path d="M285.92 340.33C287.12 340.91 288.41 341.26 289.73 341.37C292.32 341.79 294.82 342.6 297.16 343.77C298.84 344.62 300.57 345.84 300.87 347.63C300.94 347.85 300.94 348.09 300.87 348.32C300.76 348.5 300.61 348.66 300.42 348.78C298.66 349.7 296.65 350.07 294.67 349.83C288.91 349.73 282.84 349.73 277.4 347.61C276.96 347.47 276.56 347.23 276.22 346.92C275.91 346.56 275.71 346.11 275.65 345.64C275.17 343.37 275.65 341.58 277.79 340.59C280.62 339.3 283.72 338.69 286.83 338.81C286.91 339.46 286.54 340.09 285.92 340.33Z" id="bvQDpTEn5"></path><linearGradient id="gradientfaH3Nqlhr" gradientUnits="userSpaceOnUse" x1="275.52" y1="344.32" x2="300.9" y2="344.32"><stop style="stop-color: #867580;stop-opacity: 1" offset="0%"></stop><stop style="stop-color: #9b8f8e;stop-opacity: 1" offset="56.99999999999999%"></stop></linearGradient><path d="M270.93 486C273.2 488.2 275.84 490 278.71 491.33C282.35 492.77 286.41 492.77 290.35 492.67C291.79 492.67 293.4 492.49 294.14 491.34C294.87 490.19 294.25 488.71 293.57 487.53C290.9 482.85 287.34 478.48 286.15 473.27C285.76 471.63 285.56 469.8 284.25 468.67C281.37 466.2 274.09 467.1 271.73 469.96C270.68 471.5 270 473.26 269.75 475.11C269.24 477.5 267.8 481.08 268.8 483.47C269.3 484.47 270.03 485.34 270.93 486Z" id="c2vLQrStli"></path><path d="M304.93 486.31C305.29 486.5 305.71 486.54 306.11 486.44C306.38 486.29 306.6 486.06 306.74 485.79C306.93 485.5 308.44 483.2 308.63 482.91C312.11 486.75 318.09 487.23 323.42 487.13C325.95 487.13 328.47 487.03 330.99 486.91C332.09 486.91 333.45 486.62 333.86 485.62C334.28 484.61 333.35 483.74 332.53 483.14C328.12 479.9 321.96 479.01 318.4 474.95C316.96 473.28 315.95 471.13 314.08 469.96C312.29 469.08 310.31 468.67 308.32 468.78C305.1 468.69 301.5 468.38 301.13 471.95C300.7 476.12 300.59 480.32 300.8 484.51C302.15 485.15 303.53 485.76 304.93 486.31Z" id="bMFHe7fc7"></path><path d="M334.7 288.32L391.81 288.32L373.13 339.94L372.58 345.71L302.48 347.63L302.48 343.24L321.35 341.08L321.35 341.08L334.7 288.32Z" id="f1dgnk1IeV"></path><path d="M480.99 231.68C481.23 232.66 482.24 233.12 482.9 233.93C484.51 235.74 484 238.65 485.19 240.75C486.23 242.32 487.9 243.36 489.77 243.62C491.62 243.87 493.49 243.98 495.36 243.94C496.68 243.84 497.98 244.29 498.95 245.19C500.39 246.86 499.49 250.08 501.48 251.02C501.99 251.23 502.55 251.31 503.1 251.26C505.26 251.25 507.41 251.09 509.54 250.78C510.3 250.74 511.03 250.46 511.62 249.98C512.19 249.3 512.5 248.43 512.49 247.54C513.43 237.42 511.86 227.23 507.93 217.87C507.29 216.16 506.36 214.58 505.18 213.19C503.73 211.75 501.98 210.67 500.04 210.03C497.73 209.17 495.3 208.68 492.85 208.59C490.77 208.36 488.67 208.86 486.93 210.03C481.41 214.44 486.72 222.8 482.51 228.33C481.74 229.35 480.66 230.44 480.99 231.68Z" id="kOh8mPDo4"></path><linearGradient id="gradientadI0SDnZw" gradientUnits="userSpaceOnUse" x1="480.93" y1="229.94" x2="512.8" y2="229.94"><stop style="stop-color: #e5c5d5;stop-opacity: 1" offset="0%"></stop><stop style="stop-color: #ead4d1;stop-opacity: 1" offset="42%"></stop><stop style="stop-color: #f0e9cb;stop-opacity: 1" offset="100%"></stop></linearGradient><path d="M478.92 209.95C479.75 212.36 482.08 214.01 482.95 216.41C483.59 214.31 484.98 212.51 486.85 211.35C487.24 212.58 488.03 213.65 489.09 214.4C489.52 214.64 489.9 214.97 490.2 215.36C490.43 215.92 490.49 216.53 490.39 217.12C490.32 219.71 491.58 222.15 493.72 223.59C494.63 224.18 495.67 224.56 496.6 225.18C497.98 226.27 499.14 227.62 500 229.16C502.26 232.65 504.57 236.36 504.95 240.44C505.21 243.32 504.49 246.34 505.34 249.08C506.58 252.74 510.2 255.04 514.04 254.62C514.33 259.01 516.86 262.94 520.73 265.02C524.64 267.03 529.29 267 533.18 264.95C534.94 264.09 536.37 262.68 537.24 260.92C537.79 259.47 538.01 257.92 537.9 256.37C537.77 251.57 536.27 246.56 532.65 243.42C532.17 243.08 531.77 242.65 531.45 242.16C530.8 240.93 531.45 239.49 532.07 238.23C534.74 231.73 533.06 224.26 527.87 219.52C527.2 219.03 526.62 218.42 526.18 217.71C525.9 217.01 525.76 216.25 525.78 215.49C525.58 210.69 525.35 205.62 522.8 201.52C520.29 197.84 516.51 195.22 512.18 194.17C507.89 193.14 503.45 192.79 499.05 193.12C490.2 193.48 478.5 195.88 478.49 206.75C478.45 207.83 478.59 208.92 478.92 209.95Z" id="byRk7pZ1s"></path><path d="M468.6 286.91C467.02 287.36 465.37 287.53 463.72 287.41C450.28 287.09 436.38 283.87 426.02 275.37C424 273.71 421.97 271.78 419.38 271.39C419.54 271.73 420.33 273.39 421.76 276.39C415.93 276.39 412.69 276.39 412.04 276.39C411 276.31 409.95 276.48 408.99 276.88C408.01 277.31 407.46 278.37 407.68 279.42C407.93 280.01 408.35 280.51 408.87 280.86C411.75 283.19 414.79 285.54 418.41 286.2C420.21 286.53 422.07 286.42 423.89 286.59C428.04 286.99 431.87 288.88 435.64 290.65C445.95 295.51 454.48 298.77 456.57 299.67C460.08 301.11 463.87 302.39 467.55 301.54C469.39 301.03 471.14 300.25 472.74 299.22C482.82 293.47 493.05 287.64 500.96 279.18C504.04 275.88 506.86 271.98 507.02 267.41C507.15 263.73 504.77 259.52 501.03 258.56C497.29 257.6 493.84 261.67 491.23 264.19C484.7 270.68 479.64 278.47 472.6 284.39C471.43 285.47 470.08 286.32 468.6 286.91Z" id="cdu7XCw0K"></path><linearGradient id="gradienta29sstlPz" gradientUnits="userSpaceOnUse" x1="407.56" y1="280.19" x2="506.99" y2="280.19"><stop style="stop-color: #e5c5d5;stop-opacity: 1" offset="0%"></stop><stop style="stop-color: #ead4d1;stop-opacity: 1" offset="42%"></stop><stop style="stop-color: #f0e9cb;stop-opacity: 1" offset="100%"></stop></linearGradient><path d="M143.15 309.31C142.59 309.87 142.29 310.65 142.35 311.44C142.4 313.28 142.85 315.08 143.66 316.73C144.11 317.9 144.82 318.96 145.72 319.84C146.63 320.73 147.94 321.08 149.18 320.78C150.44 320.22 151.44 319.18 151.95 317.9C152.1 317.66 152.18 317.39 152.18 317.11C152.18 316.65 151.74 316.33 151.41 316.01C149.23 313.97 150.79 311.86 149.73 309.74C148.67 307.63 146.62 308.53 144.71 308.79C144.15 308.82 143.62 309 143.15 309.31Z" id="aGhl9qafM"></path><path d="M314.97 494.81C314.97 494.81 314.97 494.81 314.97 494.81C314.97 499.64 314.97 502.33 314.97 502.87C314.97 502.87 314.97 502.87 314.97 502.87C290.81 502.87 277.38 502.87 274.7 502.87C274.7 502.87 274.7 502.87 274.7 502.87C274.7 498.03 274.7 495.35 274.7 494.81C274.7 494.81 274.7 494.81 274.7 494.81C298.86 494.81 312.29 494.81 314.97 494.81Z" id="b1bo5YWSc1"></path><path d="M298.51 376.74C298.51 376.74 298.51 376.74 298.51 376.74C298.51 450.41 298.51 491.34 298.51 499.53C298.51 499.53 298.51 499.53 298.51 499.53C293.75 499.53 291.11 499.53 290.58 499.53C290.58 499.53 290.58 499.53 290.58 499.53C290.58 425.85 290.58 384.92 290.58 376.74C290.58 376.74 290.58 376.74 290.58 376.74C295.34 376.74 297.98 376.74 298.51 376.74Z" id="c2749sUqAj"></path><path d="M299.88 245.29C299.73 244.82 299.73 244.32 299.88 243.85C299.98 243.67 300.14 243.51 300.32 243.41C300.6 243.24 300.92 243.14 301.24 243.12C301.33 243.1 301.43 243.1 301.52 243.12C301.62 243.19 301.7 243.29 301.73 243.41C301.92 243.95 301.92 244.54 301.73 245.08C301.53 245.71 301.19 246.28 300.73 246.76C300.36 247.18 299.84 247.45 299.29 247.51C299.22 247.52 299.14 247.52 299.07 247.51C299.01 247.47 298.96 247.42 298.94 247.35C298.73 247.05 298.73 246.66 298.94 246.36C299.24 246.11 299.72 245.97 299.88 245.6C299.91 245.5 299.91 245.39 299.88 245.29Z" id="bzyzjLmSp"></path><linearGradient id="gradientl1GWo8U3q" gradientUnits="userSpaceOnUse" x1="304.09" y1="245.67" x2="293.19" y2="244.85"><stop style="stop-color: #000000;stop-opacity: 0" offset="0%"></stop><stop style="stop-color: #000000;stop-opacity: 1" offset="99%"></stop></linearGradient></defs><g><g><g><use xlink:href="#ap51Qwgh" opacity="1" fill="#041541" fill-opacity="1"></use><g><use xlink:href="#ap51Qwgh" opacity="1" fill-opacity="0" stroke="#000000" stroke-width="1" stroke-opacity="0"></use></g></g><g><use xlink:href="#ahS3TlTzf" opacity="1" fill="url(#gradiente4h0vEPZw2)"></use><g><use xlink:href="#ahS3TlTzf" opacity="1" fill-opacity="0" stroke="#000000" stroke-width="1" stroke-opacity="0"></use></g></g><g><use xlink:href="#a4YSgyFALt" opacity="1" fill="#3e3e54" fill-opacity="1"></use><g><use xlink:href="#a4YSgyFALt" opacity="1" fill-opacity="0" stroke="#000000" stroke-width="1" stroke-opacity="0"></use></g></g><g><use xlink:href="#f1viDeOqjP" opacity="1" fill="#3e3e54" fill-opacity="1"></use><g><use xlink:href="#f1viDeOqjP" opacity="1" fill-opacity="0" stroke="#000000" stroke-width="1" stroke-opacity="0"></use></g></g><g><use xlink:href="#cXNCb0Ifk" opacity="1" fill="#041541" fill-opacity="1"></use><g><use xlink:href="#cXNCb0Ifk" opacity="1" fill-opacity="0" stroke="#000000" stroke-width="1" stroke-opacity="0"></use></g></g><g><use xlink:href="#a5k1yPm84" opacity="1" fill="url(#gradientbAQlgm2I8)"></use><g><use xlink:href="#a5k1yPm84" opacity="1" fill-opacity="0" stroke="#000000" stroke-width="1" stroke-opacity="0"></use></g></g><g><use xlink:href="#duQGtu97k" opacity="1" fill="#041541" fill-opacity="1"></use><g><use xlink:href="#duQGtu97k" opacity="1" fill-opacity="0" stroke="#000000" stroke-width="1" stroke-opacity="0"></use></g></g><g><use xlink:href="#bj2XrITq7" opacity="1" fill="#041541" fill-opacity="1"></use><g><use xlink:href="#bj2XrITq7" opacity="1" fill-opacity="0" stroke="#000000" stroke-width="1" stroke-opacity="0"></use></g></g><g><use xlink:href="#d3cFOQhtK9" opacity="1" fill="#041541" fill-opacity="1"></use><g><use xlink:href="#d3cFOQhtK9" opacity="1" fill-opacity="0" stroke="#000000" stroke-width="1" stroke-opacity="0"></use></g></g><g><use xlink:href="#c91j2bkkp" opacity="1" fill="#041541" fill-opacity="1"></use><g><use xlink:href="#c91j2bkkp" opacity="1" fill-opacity="0" stroke="#000000" stroke-width="1" stroke-opacity="0"></use></g></g><g><use xlink:href="#b2xlJx2n5e" opacity="1" fill="#3e3e54" fill-opacity="1"></use><g><use xlink:href="#b2xlJx2n5e" opacity="1" fill-opacity="0" stroke="#000000" stroke-width="1" stroke-opacity="0"></use></g></g><g><use xlink:href="#c1GcZM9dow" opacity="1" fill="#3e3e54" fill-opacity="1"></use><g><use xlink:href="#c1GcZM9dow" opacity="1" fill-opacity="0" stroke="#000000" stroke-width="1" stroke-opacity="0"></use></g></g><g><use xlink:href="#ahldShmYb" opacity="1" fill="#3e3e54" fill-opacity="1"></use><g><use xlink:href="#ahldShmYb" opacity="1" fill-opacity="0" stroke="#000000" stroke-width="1" stroke-opacity="0"></use></g></g><g><use xlink:href="#f4H49CnG6b" opacity="1" fill="#3e3e54" fill-opacity="1"></use><g><use xlink:href="#f4H49CnG6b" opacity="1" fill-opacity="0" stroke="#000000" stroke-width="1" stroke-opacity="0"></use></g></g><g><use xlink:href="#c1bCTCTh9W" opacity="1" fill="#3e3e54" fill-opacity="1"></use><g><use xlink:href="#c1bCTCTh9W" opacity="1" fill-opacity="0" stroke="#000000" stroke-width="1" stroke-opacity="0"></use></g></g><g><use xlink:href="#dJGLonkdC" opacity="1" fill="#3e3e54" fill-opacity="1"></use><g><use xlink:href="#dJGLonkdC" opacity="1" fill-opacity="0" stroke="#000000" stroke-width="1" stroke-opacity="0"></use></g></g><g><use xlink:href="#a3IlDzdNb" opacity="1" fill="#3e3e54" fill-opacity="1"></use><g><use xlink:href="#a3IlDzdNb" opacity="1" fill-opacity="0" stroke="#000000" stroke-width="1" stroke-opacity="0"></use></g></g><g><use xlink:href="#f1FPR803y" opacity="1" fill="url(#gradiente9UqQgcoc)"></use><g><use xlink:href="#f1FPR803y" opacity="1" fill-opacity="0" stroke="#000000" stroke-width="1" stroke-opacity="0"></use></g></g><g><use xlink:href="#aU3hWldpP" opacity="1" fill="#3e3e54" fill-opacity="1"></use><g><use xlink:href="#aU3hWldpP" opacity="1" fill-opacity="0" stroke="#000000" stroke-width="1" stroke-opacity="0"></use></g></g><g><use xlink:href="#aiwKk0FHJ" opacity="1" fill="url(#gradientagC8IVT9o)"></use><g><use xlink:href="#aiwKk0FHJ" opacity="1" fill-opacity="0" stroke="#000000" stroke-width="1" stroke-opacity="0"></use></g></g><g><use xlink:href="#b3IODsTE8" opacity="1" fill="#3e3e54" fill-opacity="1"></use><g><use xlink:href="#b3IODsTE8" opacity="1" fill-opacity="0" stroke="#000000" stroke-width="1" stroke-opacity="0"></use></g></g><g><use xlink:href="#b12CRFvOL3" opacity="1" fill="#3e3e54" fill-opacity="1"></use><g><use xlink:href="#b12CRFvOL3" opacity="1" fill-opacity="0" stroke="#000000" stroke-width="1" stroke-opacity="0"></use></g></g><g><use xlink:href="#c7YdcDQFnm" opacity="1" fill="#041541" fill-opacity="1"></use><g><use xlink:href="#c7YdcDQFnm" opacity="1" fill-opacity="0" stroke="#000000" stroke-width="1" stroke-opacity="0"></use></g></g><g><use xlink:href="#d12Pg5jAbM" opacity="1" fill="#041541" fill-opacity="1"></use><g><use xlink:href="#d12Pg5jAbM" opacity="1" fill-opacity="0" stroke="#000000" stroke-width="1" stroke-opacity="0"></use></g></g><g><use xlink:href="#aYNBOzAp7" opacity="1" fill="url(#gradientb1GSfp6FNP)"></use><g><use xlink:href="#aYNBOzAp7" opacity="1" fill-opacity="0" stroke="#000000" stroke-width="1" stroke-opacity="0"></use></g></g><g><use xlink:href="#a7HiXAH2mC" opacity="1" fill="#041541" fill-opacity="1"></use><g><use xlink:href="#a7HiXAH2mC" opacity="1" fill-opacity="0" stroke="#000000" stroke-width="1" stroke-opacity="0"></use></g></g><g><use xlink:href="#b1WjSZyBls" opacity="1" fill="url(#gradiente1p3D8SpAD)"></use><g><use xlink:href="#b1WjSZyBls" opacity="1" fill-opacity="0" stroke="#000000" stroke-width="1" stroke-opacity="0"></use></g></g><g><use xlink:href="#b24FxJhD8" opacity="1" fill="url(#gradienta7nyqjtka)"></use><g><use xlink:href="#b24FxJhD8" opacity="1" fill-opacity="0" stroke="#000000" stroke-width="1" stroke-opacity="0"></use></g></g><g><use xlink:href="#h32Y5Lyf86" opacity="1" fill="#041541" fill-opacity="1"></use><g><use xlink:href="#h32Y5Lyf86" opacity="1" fill-opacity="0" stroke="#000000" stroke-width="1" stroke-opacity="0"></use></g></g><g><use xlink:href="#f7xEBfmV0" opacity="1" fill="url(#gradientbfGsM0BGp)"></use><g><use xlink:href="#f7xEBfmV0" opacity="1" fill-opacity="0" stroke="#000000" stroke-width="1" stroke-opacity="0"></use></g></g><g><use xlink:href="#geaFiCdNQ" opacity="1" fill="#3e3e54" fill-opacity="1"></use><g><use xlink:href="#geaFiCdNQ" opacity="1" fill-opacity="0" stroke="#000000" stroke-width="1" stroke-opacity="0"></use></g></g><g><use xlink:href="#b3rQN3TFQY" opacity="1" fill="#ffffff" fill-opacity="1"></use><g><use xlink:href="#b3rQN3TFQY" opacity="1" fill-opacity="0" stroke="#000000" stroke-width="1" stroke-opacity="0"></use></g></g><g><use xlink:href="#c3VRGSIFN" opacity="1" fill="#041541" fill-opacity="1"></use><g><use xlink:href="#c3VRGSIFN" opacity="1" fill-opacity="0" stroke="#000000" stroke-width="1" stroke-opacity="0"></use></g></g><g><use xlink:href="#d1VFpXpLY" opacity="1" fill="url(#gradientb2TPXCzD8h)"></use><g><use xlink:href="#d1VFpXpLY" opacity="1" fill-opacity="0" stroke="#000000" stroke-width="1" stroke-opacity="0"></use></g></g><g><use xlink:href="#a4TXe4HlYb" opacity="1" fill="#041541" fill-opacity="1"></use><g><use xlink:href="#a4TXe4HlYb" opacity="1" fill-opacity="0" stroke="#000000" stroke-width="1" stroke-opacity="0"></use></g></g><g><use xlink:href="#cA4BZLzD" opacity="1" fill="#ffffff" fill-opacity="1"></use><g><use xlink:href="#cA4BZLzD" opacity="1" fill-opacity="0" stroke="#000000" stroke-width="1" stroke-opacity="0"></use></g></g><g><use xlink:href="#dMhcQi8VV" opacity="1" fill="url(#gradientb1p7k8ZLuC)"></use><g><use xlink:href="#dMhcQi8VV" opacity="1" fill-opacity="0" stroke="#000000" stroke-width="1" stroke-opacity="0"></use></g></g><g><use xlink:href="#d3bb0uXvEB" opacity="1" fill="#041541" fill-opacity="1"></use><g><use xlink:href="#d3bb0uXvEB" opacity="1" fill-opacity="0" stroke="#000000" stroke-width="1" stroke-opacity="0"></use></g></g><g><use xlink:href="#b2AFiA0oKn" opacity="1" fill="url(#gradientb1HDUHig41)"></use><g><use xlink:href="#b2AFiA0oKn" opacity="1" fill-opacity="0" stroke="#000000" stroke-width="1" stroke-opacity="0"></use></g></g><g><use xlink:href="#c4rxbDi5o4" opacity="1" fill="#3e3e54" fill-opacity="1"></use><g><use xlink:href="#c4rxbDi5o4" opacity="1" fill-opacity="0" stroke="#000000" stroke-width="1" stroke-opacity="0"></use></g></g><g><use xlink:href="#eKMKWsT6" opacity="1" fill="url(#gradientbhWSREcvE)"></use><g><use xlink:href="#eKMKWsT6" opacity="1" fill-opacity="0" stroke="#000000" stroke-width="1" stroke-opacity="0"></use></g></g><g><use xlink:href="#a1SE5MzQRK" opacity="1" fill="#041541" fill-opacity="1"></use><g><use xlink:href="#a1SE5MzQRK" opacity="1" fill-opacity="0" stroke="#000000" stroke-width="1" stroke-opacity="0"></use></g></g><g><use xlink:href="#a5UT6V1fUy" opacity="1" fill="#ffffff" fill-opacity="1"></use><g><use xlink:href="#a5UT6V1fUy" opacity="1" fill-opacity="0" stroke="#000000" stroke-width="1" stroke-opacity="0"></use></g></g><g><use xlink:href="#e5zBfVviV" opacity="1" fill="url(#gradiente143cIRHSC)"></use><g><use xlink:href="#e5zBfVviV" opacity="1" fill-opacity="0" stroke="#000000" stroke-width="1" stroke-opacity="0"></use></g></g><g><use xlink:href="#a1pFsFj1pi" opacity="1" fill="url(#gradientcdxBrdcnB)"></use><g><use xlink:href="#a1pFsFj1pi" opacity="1" fill-opacity="0" stroke="#000000" stroke-width="1" stroke-opacity="0"></use></g></g><g><use xlink:href="#b28vCzZ0nx" opacity="1" fill="url(#gradientd2jLSkrjpn)"></use><g><use xlink:href="#b28vCzZ0nx" opacity="1" fill-opacity="0" stroke="#000000" stroke-width="1" stroke-opacity="0"></use></g></g><g><use xlink:href="#a2WZ5KuAx" opacity="1" fill="#3e3e54" fill-opacity="1"></use><g><use xlink:href="#a2WZ5KuAx" opacity="1" fill-opacity="0" stroke="#000000" stroke-width="1" stroke-opacity="0"></use></g></g><g><use xlink:href="#a1dHXDnnnI" opacity="1" fill="#ffffff" fill-opacity="1"></use><g><use xlink:href="#a1dHXDnnnI" opacity="1" fill-opacity="0" stroke="#000000" stroke-width="1" stroke-opacity="0"></use></g></g><g><use xlink:href="#c3CmcBA88z" opacity="1" fill="#ffffff" fill-opacity="1"></use><g><use xlink:href="#c3CmcBA88z" opacity="1" fill-opacity="0" stroke="#000000" stroke-width="1" stroke-opacity="0"></use></g></g><g><use xlink:href="#b22uRCcoOO" opacity="1" fill="#041541" fill-opacity="1"></use><g><use xlink:href="#b22uRCcoOO" opacity="1" fill-opacity="0" stroke="#000000" stroke-width="1" stroke-opacity="0"></use></g></g><g><use xlink:href="#d4j4MsnNPZ" opacity="1" fill="url(#gradienta4rpyiW81)"></use><g><use xlink:href="#d4j4MsnNPZ" opacity="1" fill-opacity="0" stroke="#000000" stroke-width="1" stroke-opacity="0"></use></g></g><g><use xlink:href="#cvtaVPk9o" opacity="1" fill="#ffffff" fill-opacity="1"></use><g><use xlink:href="#cvtaVPk9o" opacity="1" fill-opacity="0" stroke="#000000" stroke-width="1" stroke-opacity="0"></use></g></g><g><use xlink:href="#bvQDpTEn5" opacity="1" fill="url(#gradientfaH3Nqlhr)"></use><g><use xlink:href="#bvQDpTEn5" opacity="1" fill-opacity="0" stroke="#000000" stroke-width="1" stroke-opacity="0"></use></g></g><g><use xlink:href="#c2vLQrStli" opacity="1" fill="#3e3e54" fill-opacity="1"></use><g><use xlink:href="#c2vLQrStli" opacity="1" fill-opacity="0" stroke="#000000" stroke-width="1" stroke-opacity="0"></use></g></g><g><use xlink:href="#bMFHe7fc7" opacity="1" fill="#3e3e54" fill-opacity="1"></use><g><use xlink:href="#bMFHe7fc7" opacity="1" fill-opacity="0" stroke="#000000" stroke-width="1" stroke-opacity="0"></use></g></g><g><use xlink:href="#f1dgnk1IeV" opacity="1" fill="#3e3e54" fill-opacity="1"></use><g><use xlink:href="#f1dgnk1IeV" opacity="1" fill-opacity="0" stroke="#000000" stroke-width="1" stroke-opacity="0"></use></g></g><g><use xlink:href="#kOh8mPDo4" opacity="1" fill="url(#gradientadI0SDnZw)"></use><g><use xlink:href="#kOh8mPDo4" opacity="1" fill-opacity="0" stroke="#000000" stroke-width="1" stroke-opacity="0"></use></g></g><g><use xlink:href="#byRk7pZ1s" opacity="1" fill="#b7a451" fill-opacity="1"></use><g><use xlink:href="#byRk7pZ1s" opacity="1" fill-opacity="0" stroke="#000000" stroke-width="1" stroke-opacity="0"></use></g></g><g><use xlink:href="#cdu7XCw0K" opacity="1" fill="url(#gradienta29sstlPz)"></use><g><use xlink:href="#cdu7XCw0K" opacity="1" fill-opacity="0" stroke="#000000" stroke-width="1" stroke-opacity="0"></use></g></g><g><use xlink:href="#aGhl9qafM" opacity="1" fill="#ffffff" fill-opacity="1"></use><g><use xlink:href="#aGhl9qafM" opacity="1" fill-opacity="0" stroke="#000000" stroke-width="1" stroke-opacity="0"></use></g></g><g><use xlink:href="#b1bo5YWSc1" opacity="1" fill="#041541" fill-opacity="1"></use><g><use xlink:href="#b1bo5YWSc1" opacity="1" fill-opacity="0" stroke="#000000" stroke-width="1" stroke-opacity="0"></use></g></g><g><use xlink:href="#c2749sUqAj" opacity="1" fill="#041541" fill-opacity="1"></use><g><use xlink:href="#c2749sUqAj" opacity="1" fill-opacity="0" stroke="#000000" stroke-width="1" stroke-opacity="0"></use></g></g><g><use xlink:href="#bzyzjLmSp" opacity="1" fill="url(#gradientl1GWo8U3q)"></use><g><use xlink:href="#bzyzjLmSp" opacity="1" fill-opacity="0" stroke="#000000" stroke-width="1" stroke-opacity="0"></use></g></g></g></g></svg>