<?xml version="1.0" encoding="UTF-8" standalone="no"?>
<!DOCTYPE svg PUBLIC "-//W3C//DTD SVG 1.1//EN" "http://www.w3.org/Graphics/SVG/1.1/DTD/svg11.dtd">
<svg version="1.1" xmlns="http://www.w3.org/2000/svg" xmlns:xlink="http://www.w3.org/1999/xlink" preserveAspectRatio="xMidYMid meet" viewBox="0 0 640 640" width="640" height="640"><defs><path d="M458.26 392.74C447.95 386.46 396.43 355.06 303.68 298.54L216.13 267.2C195.5 303.96 184.04 324.38 181.74 328.46C202.3 340.8 341.82 431.89 363.74 441.6C363.89 441.6 458.14 392.64 458.26 392.74Z" id="h1PU5bVqUJ"></path><linearGradient id="gradientb2BD1m77HR" gradientUnits="userSpaceOnUse" x1="295.07" y1="403.41" x2="346.11" y2="314.46"><stop style="stop-color: #ffffff;stop-opacity: 0" offset="0%"></stop><stop style="stop-color: #0048aa;stop-opacity: 1" offset="99%"></stop></linearGradient><path d="M226.9 367.12C218.9 368.9 211.86 373.97 203.63 375.2C202.34 375.39 197.15 375.06 196.35 375.81C173.49 397.49 237.39 395.2 237.39 395.2C243.6 390.13 249.44 385.12 255.6 379.98C253.74 375.79 250.61 374.16 247.42 371.92C241.47 367.76 234.46 365.52 226.9 367.12Z" id="gvStaIY0f"></path><path d="M215.06 468.58C214.98 471.06 218.82 471.06 218.9 468.58C219.12 462.05 220.94 409.82 221.17 403.3C221.26 400.82 217.42 400.82 217.33 403.3C216.87 416.35 215.28 462.05 215.06 468.58Z" id="aYAjpb94q"></path><path d="M231.9 402.56C230.3 400.67 227.58 403.41 229.18 405.28C245.07 423.84 259.21 437.38 262.54 440.94C264.3 442.67 267.04 440 265.26 438.22C247.81 421.14 235.24 406.13 231.9 402.56Z" id="h1M4n0aJO"></path><path d="M178.4 449.2C177.38 451.44 180.7 453.39 181.73 451.14C193.7 424.77 204.77 404.38 207.33 399.18C208.48 397.01 205.15 395.06 204 397.25C190.45 422.85 180.96 444 178.4 449.2Z" id="b5kCayJTdE"></path><path d="M239.04 389.23C230.3 391.86 217.6 390.61 213.01 381.62C204.66 365.25 212.5 344.82 203.68 328.82C201.6 324.73 197.89 321.71 193.46 320.53C187.74 319.3 183.86 323.54 181.74 328.53C178.03 337.46 178.16 348.58 178.34 358.1C178.35 365.79 178.91 373.46 180.03 381.07C180.03 381.07 185.38 412.98 227.04 404.42C234.24 403.13 241.17 400.6 247.5 396.94C250.74 395.11 253.58 392.64 255.86 389.7C258.42 386.05 256.74 381.7 254.53 378.03C250.68 383.31 245.25 387.23 239.04 389.23Z" id="a11u6yi12v"></path><path d="M385.95 166.05C385.95 166.05 380.74 169.76 379.55 188.3C379.55 188.3 377.22 218.46 375.81 221.73C375.81 221.73 355.52 237.2 355.52 237.2C356.14 237.93 359.24 241.56 364.83 248.1L393.26 230.8" id="a3bYWxezQ"></path><path d="M417.62 301.86L417.62 367.09L422.45 367.09L423.49 300.18" id="aoYQq19l3"></path><path d="M445.07 276.78L454.74 347.7L449.9 347.7L439.81 279.41" id="at70sTzgu"></path><path d="M347.57 326.4C347.57 326.4 343.07 341.15 342.06 342.66C342.06 342.66 326.32 353.86 326.56 356.91C326.56 356.91 332.37 361.17 335.84 360.91C335.84 360.91 359.31 352.32 360.56 349.87C360.56 349.87 361.81 326.42 361.81 326.42C358.96 326.41 350.42 326.4 347.57 326.4Z" id="bdSsphJaT"></path><path d="M371.28 343.63C371.28 343.63 366.78 358.38 365.78 359.89C365.78 359.89 350.03 371.09 350.27 374.14C350.27 374.14 356.08 378.4 359.55 378.14C359.55 378.14 383.02 369.55 384.27 367.1C384.27 367.1 385.52 343.65 385.52 343.65C382.67 343.64 374.13 343.64 371.28 343.63Z" id="a4uuVtZNId"></path><path d="M447.7 209.36C446.42 212.94 439.18 267.34 439.18 267.34C438.7 267.18 436.28 266.37 431.92 264.91L441.39 209.07" id="d12McDffs"></path><path d="M445.07 276.78L445.2 268.02L437.46 270.67L439.81 279.41" id="a1kTsNS1N5"></path><path d="M427.54 263.22C427.54 263.22 447.01 270.69 445.14 278.05C443.26 285.41 427.57 303.42 417.6 301.87C407.63 300.32 395.49 291.65 395.49 291.65" id="b3spWpNIL1"></path><path d="M427.54 254.26C427.54 254.26 447.01 261.73 445.14 269.09C443.26 276.45 427.57 294.4 417.6 292.91C407.63 291.42 395.49 282.69 395.49 282.69" id="ip2T0Djpc"></path><path d="M435.2 185.95C435.2 185.95 454.02 190.64 456 201.47C456 201.47 458.46 232.27 431.74 224.51C405.02 216.75 417.6 196.7 417.6 196.7" id="bYKEsyMNE"></path><path d="M389.7 229.09C389.7 229.09 351.18 255.52 346.21 268.98C346.21 268.98 337.98 335.46 337.98 335.46C337.98 335.46 351.46 343.82 367.14 338.9C368.32 332.89 377.76 284.82 378.94 278.82C378.94 278.82 406.94 266.85 411.87 251.9C411.87 251.9 410.16 209.04 410.16 209.04" id="g1JSJPnuQW"></path><path d="M411.2 244.56C411.2 244.56 372.8 270.99 367.79 284.45C362.78 297.9 359.57 350.93 359.57 350.93C359.57 350.93 373.04 359.3 388.72 354.37C389.9 348.36 399.35 300.3 400.53 294.29C400.53 294.29 428.53 282.32 433.46 267.38C433.46 267.38 431.74 224.51 431.74 224.51" id="dvVVCtce"></path><path d="M435.12 177.68C430.46 171.7 404 161.94 404 161.94C397.67 160.22 390.9 161.76 385.95 166.06C379.55 171.52 384.05 213.87 385.95 235.12C397.17 245.49 410.43 248 426.58 245.12C433.15 229.12 439.09 182.72 435.12 177.68Z" id="d30VAXq7NL"></path><path d="M378.18 270.86C372.58 277.26 370.37 285.39 368.19 293.46C363.12 312.22 360.86 331.58 358.59 350.85C358.45 352.02 360.29 352 360.42 350.85C362.58 332.32 364.77 313.71 369.47 295.62C371.79 286.75 374.1 277.92 380.45 271.02C386.8 264.13 393.63 257.78 400.22 251.18C400.51 250.77 400.4 250.2 399.98 249.92C399.68 249.71 399.28 249.71 398.98 249.9C392.05 256.83 384.58 263.49 378.18 270.86Z" id="d17dyrVLY"></path><path d="M384.3 247.74C384.3 247.74 365.62 252.24 366.24 253.92C366.24 253.92 372.99 253.92 372.99 253.92C372.99 253.92 360.46 259.15 363.02 264.34C364.62 267.7 376.58 265.41 379.81 264.34C383.04 263.26 391.84 254.74 391.84 254.74C390.33 253.34 385.81 249.14 384.3 247.74Z" id="l2ze7AD8BI"></path><path d="M410.53 229.71C410.53 229.71 375.81 247.58 375.81 247.58C375.81 247.58 386.14 252.22 385.9 263.2C385.9 263.2 425.78 253.25 429.71 244.1C433.65 234.94 445.3 188.8 435.12 177.6C424.94 166.4 417.6 196.7 417.6 196.7C416.19 203.31 413.58 225.79 410.53 229.71Z" id="jZaVKhjvS"></path><path d="M400.53 179.42C412.43 184.22 425.6 171.2 425.6 171.2C425.6 171.2 407.9 160 394.13 161.82C395.41 165.34 388.62 174.62 400.53 179.42Z" id="awBydLcdK"></path><path d="M419.2 167.81L406.58 177.14L404.29 172.8C400.34 173.53 398.15 173.93 397.71 174.02C397.71 174.02 399.06 162.59 399.31 162.34C399.57 162.08 414.64 165.92 414.64 165.92C415.25 166.17 416.77 166.8 419.2 167.81Z" id="bolLyyBZq"></path><path d="M417.81 135.5C416.86 134.39 415.7 133.47 414.4 132.8C410.37 130.88 404.8 131.09 401.44 134.11C400.1 133.65 398.66 133.53 397.26 133.78C393.1 134.56 391.78 138.58 391.9 142.27C391.9 142.42 391.9 142.56 391.9 142.72C390.96 149.12 396.53 153.06 396.53 153.06C398.29 154.47 412.37 165.74 414.13 167.15C416.52 166.44 418.69 165.13 420.43 163.34C421.03 162.62 421.49 161.8 421.79 160.91C421.96 160.82 422.12 160.71 422.27 160.59C427.2 156.61 430.58 149.95 429.12 143.5C427.79 137.62 423.1 135.5 417.81 135.5Z" id="aBju7CfB"></path><path d="M405.84 171.26C415.23 171.52 418.64 158.3 418.64 158.3C418.64 158.3 410.93 154.34 410.93 151.12C410.93 147.9 411.55 146.62 407.73 144.96C403.9 143.3 397.06 144.3 397.14 148C397.14 150.21 396.45 171.01 405.84 171.26Z" id="a1paJoNn3l"></path><path d="M461.81 321.89C461.81 321.89 460.35 390.8 458.26 392.77C458.26 392.77 446.93 329.25 446.93 329.25" id="b12VnWaN2"></path><path d="M218.4 261.71C218.4 261.71 196.83 354.83 200.54 357.3C200.54 357.3 230.7 270.29 230.7 270.29" id="b1NFzBAe1I"></path><path d="M364.88 357.12C366.3 361.2 361.41 440.56 363.74 441.65C366.08 442.74 378.56 358.02 378.56 358.02" id="m1OfQPtOb"></path><path d="M477.22 306.37L477.22 320.54L472.43 320.54L470.78 312.74" id="e4RxwrTIpo"></path><path d="M197.89 247.54L203.74 255.25L197.89 261.46L197.89 261.46L197.89 247.54Z" id="b171MZLJLk"></path><path d="M277.87 207.89C283.23 204.79 289.84 204.79 295.2 207.89C312.83 218.06 453.83 299.47 471.46 309.65C477 312.85 478.89 319.93 475.7 325.47C474.68 327.23 473.22 328.7 471.46 329.71C464.01 334.01 404.45 368.4 397.01 372.7C391.88 375.67 385.56 375.67 380.43 372.7C362.74 362.49 221.24 280.79 203.55 270.58C198.09 267.42 196.23 260.43 199.39 254.97C200.39 253.24 201.82 251.8 203.55 250.8C218.42 242.22 270.44 212.18 277.87 207.89Z" id="b26j3iNcnF"></path><path d="M277.04 195.2C282.41 192.09 289.03 192.09 294.4 195.2C312.03 205.38 453.03 286.78 470.66 296.96C476.2 300.16 478.09 307.24 474.9 312.78C473.88 314.55 472.42 316.01 470.66 317.02C463.21 321.32 403.62 355.7 396.18 360C391.05 362.96 384.73 362.96 379.6 360C361.91 349.79 220.41 268.13 202.72 257.92C197.26 254.76 195.39 247.77 198.55 242.31C199.55 240.58 200.99 239.14 202.72 238.14C217.58 229.56 269.61 199.49 277.04 195.2Z" id="a3H30wg645"></path><path d="M299.58 264.67C300.72 264.96 334.53 285.47 334.53 285.47C337.83 283.6 354.32 274.24 384 257.39L350.06 237.2C323.14 251.85 306.31 261.01 299.58 264.67Z" id="j3Wk8xzU85"></path><path d="M295.84 287.5C296.98 287.79 330.78 308.3 330.78 308.3C334.08 306.43 350.56 297.08 380.22 280.24L346.32 260.05C319.4 274.69 302.57 283.84 295.84 287.5Z" id="bdXBrgzIC"></path><path d="M283.38 408.64C283.38 408.64 283.04 414.46 284.83 416.1C284.83 416.1 296.35 413.2 298.94 414.8C298.94 414.8 289.18 428.08 284.83 428.72C284.83 428.72 276.45 423.17 276.45 423.17C276.45 423.76 276.45 426.7 276.45 432L271.52 434.8L267.9 432.64L268.98 408.64C276.66 408.64 281.46 408.64 283.38 408.64Z" id="ihJA7S3Vr"></path><path d="M266.72 412.93C271.9 417.39 277.47 417.25 283.9 414.53C288.53 406.4 293.97 356.93 282.42 348.93C270 340.43 250.59 341.95 247.34 342.88C242.59 343.66 204.55 349.89 199.79 350.67C196.14 356.88 205.81 389.39 226.99 390.3C248.18 391.22 261.58 383.26 261.58 383.26C262.61 389.2 265.69 407 266.72 412.93Z" id="b1cibzV0xj"></path><path d="M242.91 281.86C242.91 281.87 242.91 282 242.91 282.02C239.57 284.75 239.04 289.74 235.49 292.21C235.49 292.3 232.14 294.66 232.11 294.75C232.08 294.85 232.43 290.18 232.42 290.21C232.42 290.21 232.42 290.21 232.42 290.21C231.26 293.41 230.13 296.61 229.22 299.81C229.38 299.91 229.55 299.98 229.73 300.03C229.7 300.04 229.58 300.1 229.36 300.21C229.17 300.32 229.06 300.39 229.04 300.4C228.95 300.73 228.72 300.99 228.4 301.12C228.01 302.46 228.78 303.86 230.12 304.25C230.73 304.43 231.37 304.37 231.94 304.1C233.01 303.57 241.61 299.37 242.69 298.85C244.12 298.54 245.53 298.13 246.9 297.62C246.9 296.5 247.07 295.38 247.18 294.26C248.91 291.6 249.18 288.25 247.9 285.34C247.96 285.27 248.02 285.21 248.1 285.15C248.1 285.14 248.1 285.05 248.1 285.04C249.89 283.78 251.11 281.86 251.47 279.7C251.49 278.21 249.95 276.27 248.24 277.06C245.99 278.03 244.12 279.72 242.91 281.86Z" id="cmzMmfpp5"></path><path d="M248.1 301.18C248.1 301.18 239.49 319.89 240.1 320.62C249.82 333.31 220.66 312.62 220.66 312.62C220.66 312.62 226.53 294.83 234.56 287.23C237.27 290.02 246.82 294.85 248.1 301.18Z" id="f2mEE39n5Z"></path><path d="M248 314.4C241.76 317.52 239.33 291.57 211.9 291.68C210.13 291.68 201.23 287.89 196.56 299.58C191.89 311.28 196.56 344.8 199.68 350.64C202.43 355.79 220.72 368.24 246.85 354.93C246.89 353.72 247.19 344.06 247.23 342.85C247.23 342.85 262.64 342.51 270.82 331.18C278.43 320.61 282.94 304.74 282.22 296.94C276.16 294.27 268.53 289.89 262.4 291.87C263.41 300.34 252.61 312.13 248 314.4Z" id="a2MC8FMHMy"></path><path d="M248.1 301.18C248.1 301.18 239.49 319.89 240.1 320.62C249.82 333.31 220.66 312.62 220.66 312.62C220.66 312.62 226.53 294.83 234.56 287.23C237.27 290.02 246.82 294.85 248.1 301.18Z" id="b1vY583zOZ"></path><path d="M251.06 255.1L283.6 262.29L278.11 307.94L246.82 297.79" id="cPqcc3pYG"></path><path d="M281.54 279.65C281.41 279.67 281.29 279.71 281.17 279.76C281.01 279.12 280.63 278.56 280.11 278.16C279.25 277.51 278.07 277.46 277.15 278.03C276.87 278.19 276.62 278.4 276.4 278.64C276.38 278.62 276.26 278.48 276.24 278.46C275.51 277.61 274.33 277.28 273.26 277.65C272.96 277.79 272.68 277.99 272.45 278.24C272.15 276.75 271.76 275.27 271.3 273.82C270.86 272.37 270.14 269.7 268.35 269.38C267.18 269.17 266.64 270.02 266.4 270.98C266.1 271.66 266.06 272.43 266.27 273.15C266.35 274.14 266.5 275.11 266.7 276.08C266.86 277.46 267.01 278.83 267.14 280.21C267.14 280.21 267.14 280.21 267.14 280.21C266.9 280.21 266.67 280.3 266.5 280.46C264.74 281.76 264.03 284.04 264.74 286.1C265.51 288.98 266.58 291.77 267.94 294.43C268.15 294.91 268.72 295.11 269.19 294.89C269.21 294.88 269.23 294.87 269.25 294.86C269.26 294.92 269.38 295.32 269.39 295.38C269.52 295.92 270.06 296.26 270.6 296.13C271.02 296.04 271.33 295.69 271.38 295.26C271.38 295.24 271.38 295.09 271.38 295.07C271.48 295.15 271.59 295.21 271.71 295.25C271.72 295.36 271.78 296.26 271.79 296.37C271.79 297.39 273.39 297.39 273.73 296.54C273.74 296.63 273.81 297.28 273.82 297.36C273.95 298.5 275.74 298.37 275.81 297.25C275.81 297.16 275.81 296.43 275.81 296.34C276.15 296.32 276.46 296.16 276.67 295.89C276.84 296.11 277.1 296.26 277.38 296.3C277.65 296.53 278.03 296.58 278.35 296.43C278.35 296.46 278.35 296.65 278.35 296.67C278.53 297.23 279.11 297.56 279.68 297.42C279.68 297.54 279.68 297.65 279.68 297.76C279.68 299.04 281.71 299.22 281.68 297.92C281.68 294.06 281.49 290.98 281.47 290.21C281.58 290.15 281.68 290.08 281.76 289.98C283.86 287.92 285.65 284.46 284.64 281.6C284.32 280.2 282.93 279.33 281.54 279.65ZM274.45 279.58C274.4 279.66 274.35 279.74 274.32 279.82C274.26 279.82 273.77 279.82 273.71 279.82C273.76 279.75 273.82 279.68 273.89 279.62C274.05 279.55 274.26 279.52 274.45 279.58Z" id="aNaNZj82Q"></path><path d="M224.38 282C220.54 285.78 210.35 284.22 207.82 280.1C205.3 275.97 202.19 270.5 204.9 264.1C207.6 257.7 226.08 256.58 226.53 260.8C226.53 261.09 228.22 278.22 224.38 282Z" id="d4n4C6CCaK"></path><path d="M220.77 270.18C219.59 268.72 217.96 267.7 216.13 267.3C214.41 266.89 212.67 267.83 212.06 269.49C210.9 273.38 217.2 274.53 219.78 274.85C220.72 274.84 221.48 274.08 221.49 273.14C221.5 272.72 221.34 272.31 221.06 272C221.32 271.39 221.21 270.68 220.77 270.18Z" id="a4HtRkX55"></path><path d="M248 314.4C241.76 317.52 239.33 291.57 211.9 291.68C210.13 291.68 201.23 287.89 196.56 299.58C191.89 311.28 196.56 344.8 199.68 350.64C202.43 355.79 220.72 368.24 246.85 354.93C246.89 353.72 247.19 344.06 247.23 342.85C247.23 342.85 262.64 342.51 270.82 331.18C278.43 320.61 282.94 304.74 282.22 296.94C276.16 294.27 268.53 289.89 262.4 291.87C263.41 300.34 252.61 312.13 248 314.4Z" id="b2HfLy1da4"></path><path d="M220.8 326.75C220.26 325.92 218.9 326.75 219.46 327.54C228.41 341.12 245.47 346.84 260.8 341.39C261.66 341.06 261.26 339.55 260.32 339.89C245.69 345.11 229.39 339.69 220.8 326.75Z" id="fwEI9yiLB"></path><path d="M238.82 302.93C235.82 300.21 232.13 298.46 229.01 295.92C228.38 295.41 227.41 296.3 228.11 296.82C231.06 299.22 234.51 300.9 237.41 303.38C240.18 305.78 242.37 308.77 243.81 312.14C244.13 312.9 245.22 312.26 244.9 311.5C243.5 308.25 241.42 305.33 238.82 302.93Z" id="eS1KzlB64"></path><path d="M221.47 266.08C221.47 266.08 225.7 282.08 226.96 286.37C226.96 286.37 223.15 296.51 206.67 296.94C206.67 296.94 191.02 272.43 194.83 263.12C194.83 263.12 210.05 249.58 219.34 252.13C224.47 253.15 227.84 258.07 226.93 263.22C225.84 263.79 222.02 265.79 221.47 266.08Z" id="c4uIDDv2wJ"></path><path d="M252.97 380.31C252.6 380.46 252.27 380.7 252 380.99C248.49 384.83 244.02 387.68 239.06 389.23C230.32 391.86 217.62 390.61 213.02 381.62C204.7 365.31 212.46 344.91 203.79 329.01C202.3 326.14 200.05 323.75 197.28 322.08C189.46 317.57 184.24 322.51 181.74 328.48C178.03 337.41 178.16 348.53 178.34 358.05C178.35 365.74 178.91 373.42 180.03 381.02C180.03 381.02 185.38 412.93 227.04 404.37C234.24 403.08 241.17 400.55 247.5 396.9C250.74 395.06 253.58 392.59 255.86 389.65C257.37 387.28 257.57 384.31 256.38 381.76C255.84 380.42 254.31 379.77 252.97 380.31Z" id="aSpsZq8jt"></path><path d="M414.11 211.12C413.6 217.31 412.78 223.3 408.94 228.38C402.37 237.1 391.46 240.38 381.42 243.34C380.98 243.46 380.72 243.92 380.84 244.36C380.96 244.8 381.41 245.06 381.86 244.94C392.21 241.89 403.42 238.43 410.22 229.42C413.15 225.31 414.91 220.49 415.31 215.46C416.14 208.53 416.43 201.5 416.91 194.54C416.98 193.47 415.38 193.47 415.31 194.5C414.93 200.03 414.56 205.58 414.11 211.12Z" id="b3ioXePVQn"></path><path d="M385.1 234.27C385.1 235.3 386.7 235.3 386.7 234.27C386.84 230.08 387.91 196.53 388.05 192.34C388.08 191.31 386.48 191.31 386.45 192.34C386.18 200.72 385.24 230.08 385.1 234.27Z" id="a1Sky2P8kr"></path><path d="M390.74 339.81C392.64 340.14 394.55 340.36 396.48 340.46C396.69 340.32 397.76 339.59 399.68 338.27L422.08 321.65L404.98 315.97C380.71 324.43 367.22 329.12 364.53 330.06C369.6 333.74 375.7 335.55 381.55 337.34C384.58 338.27 387.62 339.18 390.74 339.81Z" id="glPUaZs3z"></path><linearGradient id="gradienta1giENBpuz" gradientUnits="userSpaceOnUse" x1="385.81" y1="332.9" x2="407.12" y2="312.86"><stop style="stop-color: #000000;stop-opacity: 0" offset="0%"></stop><stop style="stop-color: #552800;stop-opacity: 1" offset="99%"></stop></linearGradient><path d="M401.94 299.25C401.94 300.44 401.94 310 401.94 311.2C401.94 318.06 407.49 323.62 414.35 323.62C414.35 323.62 414.35 323.62 414.35 323.62C421.21 323.62 426.77 318.06 426.77 311.2C426.77 309.98 426.77 300.26 426.77 299.04C422.4 300.8 417.6 304 413.14 303.58C409.03 303.39 405.1 301.87 401.94 299.25Z" id="a8s8FXifG2"></path><path d="M426.69 299.17C426.69 302.8 421.13 305.74 414.27 305.74C407.41 305.74 401.86 302.8 401.86 299.17C401.86 295.54 407.41 292.59 414.27 292.59C421.13 292.59 426.69 295.54 426.69 299.17Z" id="c1GXL0iV10"></path><path d="M403.6 285.39C403.6 285.39 410.8 289.36 414.27 300.29C412.14 297.31 405.84 299.04 403.6 285.39Z" id="a1L5TWOxuB"></path><path d="M415.52 269.5C418.48 278.96 418.48 289.09 415.52 298.54C415.52 292.74 405.92 281.17 415.52 269.5Z" id="dblifVan"></path><path d="M403.6 272.74C403.6 272.74 410.8 276.7 414.27 287.63C412.14 284.65 405.84 286.38 403.6 272.74Z" id="c1kaQ1dmIm"></path><path d="M424.9 277.6C424.91 277.6 424 285.78 415.3 293.2C417.22 290.08 413.18 284.94 424.9 277.6Z" id="akto83OW"></path><path d="M426.69 299.17C426.69 302.8 421.13 305.74 414.27 305.74C407.41 305.74 401.86 302.8 401.86 299.17C401.86 295.54 407.41 292.59 414.27 292.59C421.13 292.59 426.69 295.54 426.69 299.17Z" id="bfDO276y"></path><path d="M403.6 285.39C403.6 285.39 410.8 289.36 414.27 300.29C412.14 297.31 405.84 299.04 403.6 285.39Z" id="b1UJ8wqdhn"></path><path d="M415.52 269.5C418.48 278.96 418.48 289.09 415.52 298.54C415.52 292.74 405.92 281.17 415.52 269.5Z" id="a4zvmbS6m"></path><path d="M403.6 272.74C403.6 272.74 410.8 276.7 414.27 287.63C412.14 284.65 405.84 286.38 403.6 272.74Z" id="a3HLWhpVlw"></path><path d="M424.9 277.6C424.91 277.6 424 285.78 415.3 293.2C417.22 290.08 413.18 284.94 424.9 277.6Z" id="g2e11tkiyO"></path><path d="M250.78 256.34C252.69 256.72 244.86 256.85 246.78 256.99C246.98 256.85 247.97 256.16 249.74 254.91L282.11 238.19L257.76 227.94C237.85 239.14 226.79 245.36 224.58 246.61C229.5 250.27 235.68 252.08 241.6 253.87C244.62 254.8 247.66 255.71 250.78 256.34Z" id="edXx5Vfhc"></path><linearGradient id="gradientb2aTran9iz" gradientUnits="userSpaceOnUse" x1="245.81" y1="249.42" x2="267.1" y2="229.39"><stop style="stop-color: #000000;stop-opacity: 0" offset="0%"></stop><stop style="stop-color: #552800;stop-opacity: 1" offset="99%"></stop></linearGradient><path d="M249.76 200.72C249.76 221.41 249.76 232.9 249.76 235.2C249.76 235.2 282.9 237.04 282.9 235.2C282.9 232.9 282.9 221.41 282.9 200.72" id="aC42kfN7h"></path><path d="M282.9 234.9C282.9 239.08 275.48 242.46 266.34 242.46C257.19 242.46 249.78 239.08 249.78 234.9C249.78 230.72 257.19 227.33 266.34 227.33C275.48 227.33 282.9 230.72 282.9 234.9Z" id="eSU27YIZK"></path><path d="M282.9 200.72C282.9 204.9 275.48 208.29 266.34 208.29C257.19 208.29 249.78 204.9 249.78 200.72C249.78 196.54 257.19 193.15 266.34 193.15C275.48 193.15 282.9 196.54 282.9 200.72Z" id="b1NlMG8Tih"></path><path d="M256 206.61C256.07 206.61 256.1 206.61 256.11 206.61C256.75 206.83 257.39 207.02 258.05 207.2C257.6 203.43 253.99 173.23 253.54 169.46C252.75 169.16 251.86 169.32 251.23 169.89C251.54 172.33 253.08 184.53 255.86 206.5L256 206.61Z" id="abtfJM5sf"></path><path d="M262.56 172.35C261.84 171.91 260.93 171.91 260.21 172.35C260.09 175.86 259.17 203.92 259.06 207.42C259.75 207.58 260.45 207.7 261.15 207.78C261.43 200.69 262.42 175.89 262.56 172.35Z" id="a9Pg8MOWHa"></path><path d="M270.88 171.36L280.1 176.16C277.86 194.77 276.62 205.12 276.37 207.18C273.12 208.15 269.72 208.53 266.34 208.29C266.94 203.36 268.46 191.05 270.88 171.36Z" id="c79hyj4LP"></path></defs><g><g><g><use xlink:href="#h1PU5bVqUJ" opacity="1" fill="url(#gradientb2BD1m77HR)"></use><g><use xlink:href="#h1PU5bVqUJ" opacity="1" fill-opacity="0" stroke="#000000" stroke-width="1" stroke-opacity="0"></use></g></g><g><use xlink:href="#gvStaIY0f" opacity="1" fill="#f8997c" fill-opacity="1"></use><g><use xlink:href="#gvStaIY0f" opacity="1" fill-opacity="0" stroke="#000000" stroke-width="1" stroke-opacity="0"></use></g></g><g><use xlink:href="#aYAjpb94q" opacity="1" fill="#844040" fill-opacity="1"></use><g><use xlink:href="#aYAjpb94q" opacity="1" fill-opacity="0" stroke="#000000" stroke-width="1" stroke-opacity="0"></use></g></g><g><use xlink:href="#h1M4n0aJO" opacity="1" fill="#844040" fill-opacity="1"></use><g><use xlink:href="#h1M4n0aJO" opacity="1" fill-opacity="0" stroke="#000000" stroke-width="1" stroke-opacity="0"></use></g></g><g><use xlink:href="#b5kCayJTdE" opacity="1" fill="#844040" fill-opacity="1"></use><g><use xlink:href="#b5kCayJTdE" opacity="1" fill-opacity="0" stroke="#000000" stroke-width="1" stroke-opacity="0"></use></g></g><g><use xlink:href="#a11u6yi12v" opacity="1" fill="#00bfa6" fill-opacity="1"></use><g><use xlink:href="#a11u6yi12v" opacity="1" fill-opacity="0" stroke="#000000" stroke-width="1" stroke-opacity="0"></use></g></g><g><use xlink:href="#a3bYWxezQ" opacity="1" fill="#e6e6e6" fill-opacity="1"></use><g><use xlink:href="#a3bYWxezQ" opacity="1" fill-opacity="0" stroke="#000000" stroke-width="1" stroke-opacity="0"></use></g></g><g><use xlink:href="#aoYQq19l3" opacity="1" fill="#895851" fill-opacity="1"></use><g><use xlink:href="#aoYQq19l3" opacity="1" fill-opacity="0" stroke="#000000" stroke-width="1" stroke-opacity="0"></use></g></g><g><use xlink:href="#at70sTzgu" opacity="1" fill="#895851" fill-opacity="1"></use><g><use xlink:href="#at70sTzgu" opacity="1" fill-opacity="0" stroke="#000000" stroke-width="1" stroke-opacity="0"></use></g></g><g><use xlink:href="#bdSsphJaT" opacity="1" fill="#5c2d1d" fill-opacity="1"></use><g><use xlink:href="#bdSsphJaT" opacity="1" fill-opacity="0" stroke="#000000" stroke-width="1" stroke-opacity="0"></use></g></g><g><use xlink:href="#a4uuVtZNId" opacity="1" fill="#5c2d1d" fill-opacity="1"></use><g><use xlink:href="#a4uuVtZNId" opacity="1" fill-opacity="0" stroke="#000000" stroke-width="1" stroke-opacity="0"></use></g></g><g><use xlink:href="#d12McDffs" opacity="1" fill="#895851" fill-opacity="1"></use><g><use xlink:href="#d12McDffs" opacity="1" fill-opacity="0" stroke="#000000" stroke-width="1" stroke-opacity="0"></use></g></g><g><use xlink:href="#a1kTsNS1N5" opacity="1" fill="#a9cbf8" fill-opacity="1"></use><g><use xlink:href="#a1kTsNS1N5" opacity="1" fill-opacity="0" stroke="#000000" stroke-width="1" stroke-opacity="0"></use></g></g><g><use xlink:href="#b3spWpNIL1" opacity="1" fill="#a9cbf8" fill-opacity="1"></use><g><use xlink:href="#b3spWpNIL1" opacity="1" fill-opacity="0" stroke="#000000" stroke-width="1" stroke-opacity="0"></use></g></g><g><use xlink:href="#ip2T0Djpc" opacity="1" fill="#cbe3ff" fill-opacity="1"></use><g><use xlink:href="#ip2T0Djpc" opacity="1" fill-opacity="0" stroke="#000000" stroke-width="1" stroke-opacity="0"></use></g></g><g><use xlink:href="#bYKEsyMNE" opacity="1" fill="#cbe3ff" fill-opacity="1"></use><g><use xlink:href="#bYKEsyMNE" opacity="1" fill-opacity="0" stroke="#000000" stroke-width="1" stroke-opacity="0"></use></g></g><g><use xlink:href="#g1JSJPnuQW" opacity="1" fill="#895851" fill-opacity="1"></use><g><use xlink:href="#g1JSJPnuQW" opacity="1" fill-opacity="0" stroke="#000000" stroke-width="1" stroke-opacity="0"></use></g></g><g><use xlink:href="#dvVVCtce" opacity="1" fill="#895851" fill-opacity="1"></use><g><use xlink:href="#dvVVCtce" opacity="1" fill-opacity="0" stroke="#000000" stroke-width="1" stroke-opacity="0"></use></g></g><g><use xlink:href="#d30VAXq7NL" opacity="1" fill="#e6e6e6" fill-opacity="1"></use><g><use xlink:href="#d30VAXq7NL" opacity="1" fill-opacity="0" stroke="#000000" stroke-width="1" stroke-opacity="0"></use></g></g><g><use xlink:href="#d17dyrVLY" opacity="1" fill="#5c2d1d" fill-opacity="1"></use><g><use xlink:href="#d17dyrVLY" opacity="1" fill-opacity="0" stroke="#000000" stroke-width="1" stroke-opacity="0"></use></g></g><g><use xlink:href="#l2ze7AD8BI" opacity="1" fill="#ffd8c6" fill-opacity="1"></use><g><use xlink:href="#l2ze7AD8BI" opacity="1" fill-opacity="0" stroke="#000000" stroke-width="1" stroke-opacity="0"></use></g></g><g><use xlink:href="#jZaVKhjvS" opacity="1" fill="#e6e6e6" fill-opacity="1"></use><g><use xlink:href="#jZaVKhjvS" opacity="1" fill-opacity="0" stroke="#000000" stroke-width="1" stroke-opacity="0"></use></g></g><g><use xlink:href="#awBydLcdK" opacity="1" fill="#6ca3d8" fill-opacity="1"></use><g><use xlink:href="#awBydLcdK" opacity="1" fill-opacity="0" stroke="#000000" stroke-width="1" stroke-opacity="0"></use></g></g><g><use xlink:href="#bolLyyBZq" opacity="1" fill="#4687bc" fill-opacity="1"></use><g><use xlink:href="#bolLyyBZq" opacity="1" fill-opacity="0" stroke="#000000" stroke-width="1" stroke-opacity="0"></use></g></g><g><use xlink:href="#aBju7CfB" opacity="1" fill="#895851" fill-opacity="1"></use><g><use xlink:href="#aBju7CfB" opacity="1" fill-opacity="0" stroke="#000000" stroke-width="1" stroke-opacity="0"></use></g></g><g><use xlink:href="#a1paJoNn3l" opacity="1" fill="#ffe0ce" fill-opacity="1"></use><g><use xlink:href="#a1paJoNn3l" opacity="1" fill-opacity="0" stroke="#000000" stroke-width="1" stroke-opacity="0"></use></g></g><g><use xlink:href="#b12VnWaN2" opacity="1" fill="#844040" fill-opacity="1"></use><g><use xlink:href="#b12VnWaN2" opacity="1" fill-opacity="0" stroke="#000000" stroke-width="1" stroke-opacity="0"></use></g></g><g><use xlink:href="#b1NFzBAe1I" opacity="1" fill="#844040" fill-opacity="1"></use><g><use xlink:href="#b1NFzBAe1I" opacity="1" fill-opacity="0" stroke="#000000" stroke-width="1" stroke-opacity="0"></use></g></g><g><use xlink:href="#m1OfQPtOb" opacity="1" fill="#844040" fill-opacity="1"></use><g><use xlink:href="#m1OfQPtOb" opacity="1" fill-opacity="0" stroke="#000000" stroke-width="1" stroke-opacity="0"></use></g></g><g><use xlink:href="#e4RxwrTIpo" opacity="1" fill="#a85c5c" fill-opacity="1"></use><g><use xlink:href="#e4RxwrTIpo" opacity="1" fill-opacity="0" stroke="#000000" stroke-width="1" stroke-opacity="0"></use></g></g><g><use xlink:href="#b171MZLJLk" opacity="1" fill="#a85c5c" fill-opacity="1"></use><g><use xlink:href="#b171MZLJLk" opacity="1" fill-opacity="0" stroke="#000000" stroke-width="1" stroke-opacity="0"></use></g></g><g><use xlink:href="#b26j3iNcnF" opacity="1" fill="#a85c5c" fill-opacity="1"></use><g><use xlink:href="#b26j3iNcnF" opacity="1" fill-opacity="0" stroke="#000000" stroke-width="1" stroke-opacity="0"></use></g></g><g><use xlink:href="#a3H30wg645" opacity="1" fill="#c96f6f" fill-opacity="1"></use><g><use xlink:href="#a3H30wg645" opacity="1" fill-opacity="0" stroke="#000000" stroke-width="1" stroke-opacity="0"></use></g></g><g><use xlink:href="#j3Wk8xzU85" opacity="1" fill="#ffffff" fill-opacity="1"></use><g><use xlink:href="#j3Wk8xzU85" opacity="1" fill-opacity="0" stroke="#000000" stroke-width="1" stroke-opacity="0"></use></g></g><g><use xlink:href="#bdXBrgzIC" opacity="1" fill="#00bfa6" fill-opacity="1"></use><g><use xlink:href="#bdXBrgzIC" opacity="1" fill-opacity="0" stroke="#000000" stroke-width="1" stroke-opacity="0"></use></g></g><g><use xlink:href="#ihJA7S3Vr" opacity="1" fill="#8787d1" fill-opacity="1"></use><g><use xlink:href="#ihJA7S3Vr" opacity="1" fill-opacity="0" stroke="#000000" stroke-width="1" stroke-opacity="0"></use></g></g><g><use xlink:href="#b1cibzV0xj" opacity="1" fill="#124577" fill-opacity="1"></use><g><use xlink:href="#b1cibzV0xj" opacity="1" fill-opacity="0" stroke="#000000" stroke-width="1" stroke-opacity="0"></use></g></g><g><use xlink:href="#cmzMmfpp5" opacity="1" fill="#f7931e" fill-opacity="1"></use><g><use xlink:href="#cmzMmfpp5" opacity="1" fill-opacity="0" stroke="#000000" stroke-width="1" stroke-opacity="0"></use></g></g><g><use xlink:href="#f2mEE39n5Z" opacity="1" fill="#00bfa6" fill-opacity="1"></use><g><use xlink:href="#f2mEE39n5Z" opacity="1" fill-opacity="0" stroke="#000000" stroke-width="1" stroke-opacity="0"></use></g></g><g><use xlink:href="#a2MC8FMHMy" opacity="1" fill="#00bfa6" fill-opacity="1"></use><g><use xlink:href="#a2MC8FMHMy" opacity="1" fill-opacity="0" stroke="#000000" stroke-width="1" stroke-opacity="0"></use></g></g><g><use xlink:href="#b1vY583zOZ" opacity="1" fill="#8787d1" fill-opacity="1"></use><g><use xlink:href="#b1vY583zOZ" opacity="1" fill-opacity="0" stroke="#000000" stroke-width="1" stroke-opacity="0"></use></g></g><g><use xlink:href="#cPqcc3pYG" opacity="1" fill="#124577" fill-opacity="1"></use><g><use xlink:href="#cPqcc3pYG" opacity="1" fill-opacity="0" stroke="#000000" stroke-width="1" stroke-opacity="0"></use></g></g><g><use xlink:href="#aNaNZj82Q" opacity="1" fill="#f7931e" fill-opacity="1"></use><g><use xlink:href="#aNaNZj82Q" opacity="1" fill-opacity="0" stroke="#000000" stroke-width="1" stroke-opacity="0"></use></g></g><g><use xlink:href="#d4n4C6CCaK" opacity="1" fill="#f7931e" fill-opacity="1"></use><g><use xlink:href="#d4n4C6CCaK" opacity="1" fill-opacity="0" stroke="#000000" stroke-width="1" stroke-opacity="0"></use></g></g><g><use xlink:href="#a4HtRkX55" opacity="1" fill="#ffe8e6" fill-opacity="1"></use><g><use xlink:href="#a4HtRkX55" opacity="1" fill-opacity="0" stroke="#000000" stroke-width="1" stroke-opacity="0"></use></g></g><g><use xlink:href="#b2HfLy1da4" opacity="1" fill="#8787d1" fill-opacity="1"></use><g><use xlink:href="#b2HfLy1da4" opacity="1" fill-opacity="0" stroke="#000000" stroke-width="1" stroke-opacity="0"></use></g></g><g><use xlink:href="#fwEI9yiLB" opacity="1" fill="#ffffff" fill-opacity="1"></use><g><use xlink:href="#fwEI9yiLB" opacity="1" fill-opacity="0" stroke="#000000" stroke-width="1" stroke-opacity="0"></use></g></g><g><use xlink:href="#eS1KzlB64" opacity="1" fill="#ffffff" fill-opacity="1"></use><g><use xlink:href="#eS1KzlB64" opacity="1" fill-opacity="0" stroke="#000000" stroke-width="1" stroke-opacity="0"></use></g></g><g><use xlink:href="#c4uIDDv2wJ" opacity="1" fill="#b24d16" fill-opacity="1"></use><g><use xlink:href="#c4uIDDv2wJ" opacity="1" fill-opacity="0" stroke="#000000" stroke-width="1" stroke-opacity="0"></use></g></g><g><use xlink:href="#aSpsZq8jt" opacity="1" fill="#00bfa6" fill-opacity="1"></use><g><use xlink:href="#aSpsZq8jt" opacity="1" fill-opacity="0" stroke="#000000" stroke-width="1" stroke-opacity="0"></use></g></g><g><use xlink:href="#b3ioXePVQn" opacity="1" fill="#b6bbbf" fill-opacity="1"></use><g><use xlink:href="#b3ioXePVQn" opacity="1" fill-opacity="0" stroke="#000000" stroke-width="1" stroke-opacity="0"></use></g></g><g><use xlink:href="#a1Sky2P8kr" opacity="1" fill="#b6bbbf" fill-opacity="1"></use><g><use xlink:href="#a1Sky2P8kr" opacity="1" fill-opacity="0" stroke="#000000" stroke-width="1" stroke-opacity="0"></use></g></g><g><use xlink:href="#glPUaZs3z" opacity="1" fill="url(#gradienta1giENBpuz)"></use><g><use xlink:href="#glPUaZs3z" opacity="1" fill-opacity="0" stroke="#000000" stroke-width="1" stroke-opacity="0"></use></g></g><g><use xlink:href="#a8s8FXifG2" opacity="1" fill="#00bfa6" fill-opacity="1"></use><g><use xlink:href="#a8s8FXifG2" opacity="1" fill-opacity="0" stroke="#000000" stroke-width="1" stroke-opacity="0"></use></g></g><g><use xlink:href="#c1GXL0iV10" opacity="1" fill="#5ed18d" fill-opacity="1"></use><g><use xlink:href="#c1GXL0iV10" opacity="1" fill-opacity="0" stroke="#000000" stroke-width="1" stroke-opacity="0"></use></g></g><g><use xlink:href="#a1L5TWOxuB" opacity="1" fill="#5ed18d" fill-opacity="1"></use><g><use xlink:href="#a1L5TWOxuB" opacity="1" fill-opacity="0" stroke="#000000" stroke-width="1" stroke-opacity="0"></use></g></g><g><use xlink:href="#dblifVan" opacity="1" fill="#5ed18d" fill-opacity="1"></use><g><use xlink:href="#dblifVan" opacity="1" fill-opacity="0" stroke="#000000" stroke-width="1" stroke-opacity="0"></use></g></g><g><use xlink:href="#c1kaQ1dmIm" opacity="1" fill="#5ed18d" fill-opacity="1"></use><g><use xlink:href="#c1kaQ1dmIm" opacity="1" fill-opacity="0" stroke="#000000" stroke-width="1" stroke-opacity="0"></use></g></g><g><use xlink:href="#akto83OW" opacity="1" fill="#5ed18d" fill-opacity="1"></use><g><use xlink:href="#akto83OW" opacity="1" fill-opacity="0" stroke="#000000" stroke-width="1" stroke-opacity="0"></use></g></g><g><use xlink:href="#bfDO276y" opacity="1" fill="#146666" fill-opacity="1"></use><g><use xlink:href="#bfDO276y" opacity="1" fill-opacity="0" stroke="#000000" stroke-width="1" stroke-opacity="0"></use></g></g><g><use xlink:href="#b1UJ8wqdhn" opacity="1" fill="#5ed18d" fill-opacity="1"></use><g><use xlink:href="#b1UJ8wqdhn" opacity="1" fill-opacity="0" stroke="#000000" stroke-width="1" stroke-opacity="0"></use></g></g><g><use xlink:href="#a4zvmbS6m" opacity="1" fill="#5ed18d" fill-opacity="1"></use><g><use xlink:href="#a4zvmbS6m" opacity="1" fill-opacity="0" stroke="#000000" stroke-width="1" stroke-opacity="0"></use></g></g><g><use xlink:href="#a3HLWhpVlw" opacity="1" fill="#5ed18d" fill-opacity="1"></use><g><use xlink:href="#a3HLWhpVlw" opacity="1" fill-opacity="0" stroke="#000000" stroke-width="1" stroke-opacity="0"></use></g></g><g><use xlink:href="#g2e11tkiyO" opacity="1" fill="#5ed18d" fill-opacity="1"></use><g><use xlink:href="#g2e11tkiyO" opacity="1" fill-opacity="0" stroke="#000000" stroke-width="1" stroke-opacity="0"></use></g></g><g><use xlink:href="#edXx5Vfhc" opacity="1" fill="url(#gradientb2aTran9iz)"></use><g><use xlink:href="#edXx5Vfhc" opacity="1" fill-opacity="0" stroke="#000000" stroke-width="1" stroke-opacity="0"></use></g></g><g><use xlink:href="#aC42kfN7h" opacity="1" fill="#00bfa6" fill-opacity="1"></use><g><use xlink:href="#aC42kfN7h" opacity="1" fill-opacity="0" stroke="#000000" stroke-width="1" stroke-opacity="0"></use></g></g><g><use xlink:href="#eSU27YIZK" opacity="1" fill="#00bfa6" fill-opacity="1"></use><g><use xlink:href="#eSU27YIZK" opacity="1" fill-opacity="0" stroke="#000000" stroke-width="1" stroke-opacity="0"></use></g></g><g><use xlink:href="#b1NlMG8Tih" opacity="1" fill="#3129a3" fill-opacity="1"></use><g><use xlink:href="#b1NlMG8Tih" opacity="1" fill-opacity="0" stroke="#000000" stroke-width="1" stroke-opacity="0"></use></g></g><g><use xlink:href="#abtfJM5sf" opacity="1" fill="#f78b72" fill-opacity="1"></use><g><use xlink:href="#abtfJM5sf" opacity="1" fill-opacity="0" stroke="#000000" stroke-width="1" stroke-opacity="0"></use></g></g><g><use xlink:href="#a9Pg8MOWHa" opacity="1" fill="#f78b72" fill-opacity="1"></use><g><use xlink:href="#a9Pg8MOWHa" opacity="1" fill-opacity="0" stroke="#000000" stroke-width="1" stroke-opacity="0"></use></g></g><g><use xlink:href="#c79hyj4LP" opacity="1" fill="#fcb749" fill-opacity="1"></use><g><use xlink:href="#c79hyj4LP" opacity="1" fill-opacity="0" stroke="#000000" stroke-width="1" stroke-opacity="0"></use></g></g></g></g></svg>